<svg width="800" height="400" viewBox="0 0 800 400" xmlns="http://www.w3.org/2000/svg"><mask id="satori_om-id"><rect x="0" y="0" width="800" height="400" fill="#fff"/></mask><rect x="0" y="0" width="800" height="400" fill="#020617"/><mask id="satori_om-id-0"><rect x="20" y="35" width="760" height="14" fill="#fff"/></mask><path fill="hsl(8.5,82.4%,53.1%)" d="M25.6 41.1L22.8 49.5L20.4 49.5L24.1 38.6L27.1 38.6L30.9 49.5L28.4 49.5L25.7 41.1L25.6 41.1ZM22.7 47.0L22.7 45.2L28.5 45.2L28.5 47.0L22.7 47.0ZM34.7 40.5L31.4 40.5L31.4 38.6L40.4 38.6L40.4 40.5L37.0 40.5L37.0 49.5L34.7 49.5L34.7 40.5ZM45.2 49.5L42.8 49.5L42.8 38.6L45.2 38.6L45.2 43.1L49.8 43.1L49.8 38.6L52.1 38.6L52.1 49.5L49.8 49.5L49.8 45.0L45.2 45.0L45.2 49.5ZM59.7 41.1L56.9 49.5L54.4 49.5L58.2 38.6L61.2 38.6L64.9 49.5L62.5 49.5L59.7 41.1L59.7 41.1ZM56.8 47.0L56.8 45.2L62.6 45.2L62.6 47.0L56.8 47.0ZM69.6 49.5L67.3 49.5L67.3 38.6L71.6 38.6Q72.8 38.6 73.7 39.1Q74.6 39.5 75.0 40.3Q75.5 41.1 75.5 42.2L75.5 42.2Q75.5 43.3 75.0 44.1Q74.5 44.8 73.6 45.2Q72.8 45.7 71.5 45.7L71.5 45.7L68.6 45.7L68.6 43.8L71.1 43.8Q71.8 43.8 72.2 43.6Q72.7 43.4 72.9 43.1Q73.1 42.7 73.1 42.2L73.1 42.2Q73.1 41.6 72.9 41.3Q72.7 40.9 72.2 40.7Q71.8 40.5 71.1 40.5L71.1 40.5L69.6 40.5L69.6 49.5ZM70.7 44.6L73.1 44.6L75.9 49.5L73.3 49.5L70.7 44.6ZM77.2 38.6L79.8 38.6L82.4 46.9L82.5 46.9L85.1 38.6L87.7 38.6L83.9 49.5L81.0 49.5L77.2 38.6ZM93.2 41.1L90.4 49.5L88.0 49.5L91.7 38.6L94.7 38.6L98.5 49.5L96.0 49.5L93.3 41.1L93.2 41.1ZM90.3 47.0L90.3 45.2L96.1 45.2L96.1 47.0L90.3 47.0Z M111.3 40.5L107.9 40.5L107.9 38.6L116.9 38.6L116.9 40.5L113.6 40.5L113.6 49.5L111.3 49.5L111.3 40.5ZM122.7 45.7L118.7 38.6L121.3 38.6L123.8 43.3L123.9 43.3L126.4 38.6L129.0 38.6L125.0 45.7L125.0 49.5L122.7 49.5L122.7 45.7ZM133.6 49.5L131.3 49.5L131.3 38.6L135.6 38.6Q136.8 38.6 137.7 39.1Q138.5 39.6 139.0 40.4Q139.5 41.2 139.5 42.3L139.5 42.3Q139.5 43.4 139.0 44.2Q138.5 45.1 137.6 45.5Q136.8 46.0 135.5 46.0L135.5 46.0L132.8 46.0L132.8 44.1L135.1 44.1Q135.8 44.1 136.2 43.9Q136.7 43.7 136.9 43.3Q137.1 42.9 137.1 42.3L137.1 42.3Q137.1 41.8 136.9 41.4Q136.7 41.0 136.2 40.7Q135.8 40.5 135.1 40.5L135.1 40.5L133.6 40.5L133.6 49.5ZM149.3 49.5L142.0 49.5L142.0 38.6L149.3 38.6L149.3 40.5L144.3 40.5L144.3 43.1L148.9 43.1L148.9 45.0L144.3 45.0L144.3 47.6L149.3 47.6L149.3 49.5ZM160.3 41.8L158.1 41.8Q158.0 41.1 157.5 40.8Q157.0 40.4 156.2 40.4L156.2 40.4Q155.6 40.4 155.3 40.6Q154.9 40.7 154.7 41.0Q154.5 41.3 154.5 41.6L154.5 41.6Q154.4 41.9 154.6 42.1Q154.7 42.4 155.0 42.5Q155.2 42.7 155.5 42.8Q155.8 42.9 156.2 43.0L156.2 43.0L157.2 43.2Q157.9 43.4 158.5 43.6Q159.1 43.9 159.5 44.3Q159.9 44.7 160.2 45.2Q160.4 45.7 160.4 46.4L160.4 46.4Q160.4 47.4 159.9 48.1Q159.4 48.9 158.5 49.3Q157.5 49.7 156.2 49.7L156.2 49.7Q154.9 49.7 153.9 49.3Q152.9 48.9 152.4 48.1Q151.8 47.3 151.8 46.1L151.8 46.1L154.0 46.1Q154.1 46.7 154.4 47.0Q154.6 47.4 155.1 47.6Q155.6 47.8 156.2 47.8L156.2 47.8Q156.8 47.8 157.2 47.6Q157.6 47.4 157.9 47.1Q158.1 46.8 158.1 46.4L158.1 46.4Q158.1 46.0 157.9 45.8Q157.7 45.5 157.3 45.4Q156.8 45.2 156.3 45.0L156.3 45.0L155.1 44.7Q153.7 44.4 152.9 43.7Q152.1 43.0 152.1 41.8L152.1 41.8Q152.1 40.8 152.6 40.0Q153.2 39.3 154.1 38.9Q155.0 38.5 156.2 38.5L156.2 38.5Q157.4 38.5 158.3 38.9Q159.3 39.3 159.8 40.0Q160.3 40.8 160.3 41.8L160.3 41.8Z "/><mask id="satori_om-id-1"><rect x="20" y="59" width="760" height="26" fill="#fff"/></mask><path fill="#e2e8f0" d="M24.9 86.1L22.5 86.1L22.5 65.8L34.7 65.8L34.7 67.9L24.9 67.9L24.9 74.8L33.8 74.8L33.8 77.0L24.9 77.0L24.9 86.1ZM40.8 86.1L38.4 86.1L38.4 70.9L40.7 70.9L40.7 73.2L40.8 73.2Q41.3 72.0 42.4 71.3Q43.4 70.6 44.8 70.6L44.8 70.6Q45.1 70.6 45.5 70.6Q45.9 70.6 46.1 70.7L46.1 70.7L46.1 73.0Q45.9 73.0 45.5 72.9Q45.1 72.9 44.6 72.9L44.6 72.9Q43.5 72.9 42.6 73.3Q41.8 73.8 41.3 74.6Q40.8 75.4 40.8 76.5L40.8 76.5L40.8 86.1ZM54.6 86.4L54.6 86.4Q52.5 86.4 50.9 85.5Q49.4 84.5 48.5 82.7Q47.6 80.9 47.6 78.6L47.6 78.6Q47.6 76.2 48.5 74.4Q49.4 72.6 50.9 71.6Q52.5 70.7 54.6 70.7L54.6 70.7Q56.6 70.7 58.2 71.6Q59.7 72.6 60.6 74.4Q61.5 76.2 61.5 78.6L61.5 78.6Q61.5 80.9 60.6 82.7Q59.7 84.5 58.2 85.5Q56.6 86.4 54.6 86.4ZM54.6 84.3L54.6 84.3Q56.1 84.3 57.1 83.5Q58.2 82.7 58.6 81.4Q59.1 80.1 59.1 78.6L59.1 78.6Q59.1 77.0 58.6 75.7Q58.2 74.4 57.1 73.6Q56.1 72.8 54.6 72.8L54.6 72.8Q53.0 72.8 52.0 73.6Q51.0 74.4 50.5 75.7Q50.0 77.0 50.0 78.6L50.0 78.6Q50.0 80.1 50.5 81.4Q51.0 82.7 52.0 83.5Q53.0 84.3 54.6 84.3ZM67.4 76.9L67.4 76.9L67.4 86.1L65.1 86.1L65.1 70.9L67.3 70.9L67.3 73.2L67.5 73.2Q68.1 72.1 69.2 71.4Q70.3 70.7 72.0 70.7L72.0 70.7Q73.5 70.7 74.7 71.3Q75.9 71.9 76.5 73.2Q77.2 74.5 77.2 76.4L77.2 76.4L77.2 86.1L74.8 86.1L74.8 76.6Q74.8 74.8 73.9 73.8Q72.9 72.8 71.3 72.8L71.3 72.8Q70.2 72.8 69.3 73.2Q68.4 73.7 67.9 74.7Q67.4 75.6 67.4 76.9ZM80.2 70.9L88.1 70.9L88.1 72.8L80.2 72.8L80.2 70.9ZM82.5 82.4L82.5 67.2L84.8 67.2L84.8 81.8Q84.8 82.7 85.1 83.2Q85.4 83.7 85.9 83.9Q86.3 84.1 86.9 84.1L86.9 84.1Q87.2 84.1 87.5 84.0Q87.7 84.0 87.9 83.9L87.9 83.9L88.4 86.0Q88.1 86.1 87.7 86.2Q87.3 86.3 86.6 86.3L86.6 86.3Q85.6 86.3 84.7 85.9Q83.7 85.5 83.1 84.6Q82.5 83.7 82.5 82.4L82.5 82.4ZM97.9 86.4L97.9 86.4Q95.7 86.4 94.1 85.5Q92.5 84.5 91.6 82.7Q90.8 81.0 90.8 78.6L90.8 78.6Q90.8 76.3 91.6 74.5Q92.5 72.7 94.0 71.7Q95.6 70.7 97.6 70.7L97.6 70.7Q98.8 70.7 100.0 71.1Q101.2 71.4 102.1 72.3Q103.1 73.2 103.6 74.7Q104.2 76.2 104.2 78.3L104.2 78.3L104.2 79.3L92.4 79.3L92.4 77.3L101.8 77.3Q101.8 76.0 101.3 74.9Q100.8 73.9 99.8 73.3Q98.9 72.8 97.6 72.8L97.6 72.8Q96.2 72.8 95.2 73.5Q94.2 74.1 93.6 75.2Q93.1 76.4 93.1 77.6L93.1 77.6L93.1 79.0Q93.1 80.7 93.7 81.9Q94.3 83.1 95.4 83.7Q96.5 84.3 97.9 84.3L97.9 84.3Q98.8 84.3 99.6 84.1Q100.3 83.8 100.8 83.3Q101.4 82.7 101.7 81.9L101.7 81.9L104.0 82.6Q103.6 83.7 102.8 84.6Q101.9 85.5 100.7 86.0Q99.4 86.4 97.9 86.4ZM110.1 76.9L110.1 76.9L110.1 86.1L107.8 86.1L107.8 70.9L110.0 70.9L110.0 73.2L110.2 73.2Q110.8 72.1 111.9 71.4Q113.0 70.7 114.7 70.7L114.7 70.7Q116.3 70.7 117.4 71.3Q118.6 71.9 119.2 73.2Q119.9 74.5 119.9 76.4L119.9 76.4L119.9 86.1L117.5 86.1L117.5 76.6Q117.5 74.8 116.6 73.8Q115.7 72.8 114.0 72.8L114.0 72.8Q112.9 72.8 112.0 73.2Q111.1 73.7 110.6 74.7Q110.1 75.6 110.1 76.9ZM129.9 86.4L129.9 86.4Q128.0 86.4 126.6 85.5Q125.1 84.5 124.3 82.7Q123.4 81.0 123.4 78.5L123.4 78.5Q123.4 76.1 124.3 74.4Q125.1 72.6 126.6 71.6Q128.0 70.7 130.0 70.7L130.0 70.7Q131.5 70.7 132.3 71.1Q133.2 71.6 133.7 72.3Q134.1 72.9 134.4 73.3L134.4 73.3L134.6 73.3L134.6 65.8L136.9 65.8L136.9 86.1L134.7 86.1L134.7 83.8L134.4 83.8Q134.1 84.2 133.7 84.8Q133.2 85.5 132.3 86.0Q131.4 86.4 129.9 86.4ZM130.3 84.3L130.3 84.3Q131.7 84.3 132.6 83.6Q133.6 82.9 134.1 81.5Q134.6 80.2 134.6 78.5L134.6 78.5Q134.6 76.8 134.1 75.5Q133.6 74.2 132.7 73.5Q131.7 72.8 130.3 72.8L130.3 72.8Q128.8 72.8 127.8 73.5Q126.8 74.3 126.3 75.6Q125.8 76.9 125.8 78.5L125.8 78.5Q125.8 80.1 126.3 81.4Q126.8 82.8 127.8 83.6Q128.8 84.3 130.3 84.3Z M156.8 86.1L156.8 86.1L150.5 86.1L150.5 65.8L157.1 65.8Q160.1 65.8 162.2 67.0Q164.3 68.2 165.4 70.5Q166.5 72.7 166.5 75.9L166.5 75.9Q166.5 79.1 165.4 81.4Q164.3 83.7 162.1 84.9Q159.9 86.1 156.8 86.1ZM153.0 67.9L153.0 83.9L156.7 83.9Q159.2 83.9 160.8 83.0Q162.5 82.0 163.3 80.2Q164.1 78.4 164.1 75.9L164.1 75.9Q164.1 73.4 163.3 71.7Q162.5 69.9 160.9 68.9Q159.3 67.9 156.9 67.9L156.9 67.9L153.0 67.9ZM176.7 86.4L176.7 86.4Q174.5 86.4 172.9 85.5Q171.3 84.5 170.5 82.7Q169.6 81.0 169.6 78.6L169.6 78.6Q169.6 76.3 170.5 74.5Q171.3 72.7 172.9 71.7Q174.4 70.7 176.5 70.7L176.5 70.7Q177.7 70.7 178.9 71.1Q180.0 71.4 181.0 72.3Q181.9 73.2 182.5 74.7Q183.1 76.2 183.1 78.3L183.1 78.3L183.1 79.3L171.3 79.3L171.3 77.3L180.7 77.3Q180.7 76.0 180.2 74.9Q179.7 73.9 178.7 73.3Q177.8 72.8 176.5 72.8L176.5 72.8Q175.1 72.8 174.1 73.5Q173.1 74.1 172.5 75.2Q172.0 76.4 172.0 77.6L172.0 77.6L172.0 79.0Q172.0 80.7 172.6 81.9Q173.2 83.1 174.2 83.7Q175.3 84.3 176.7 84.3L176.7 84.3Q177.7 84.3 178.4 84.1Q179.2 83.8 179.7 83.3Q180.3 82.7 180.6 81.9L180.6 81.9L182.8 82.6Q182.5 83.7 181.6 84.6Q180.8 85.5 179.5 86.0Q178.3 86.4 176.7 86.4ZM196.1 70.9L198.7 70.9L193.0 86.1L190.6 86.1L185.0 70.9L187.5 70.9L191.7 83.0L191.9 83.0L196.1 70.9ZM207.6 86.4L207.6 86.4Q205.4 86.4 203.8 85.5Q202.2 84.5 201.3 82.7Q200.5 81.0 200.5 78.6L200.5 78.6Q200.5 76.3 201.3 74.5Q202.2 72.7 203.8 71.7Q205.3 70.7 207.4 70.7L207.4 70.7Q208.6 70.7 209.7 71.1Q210.9 71.4 211.8 72.3Q212.8 73.2 213.4 74.7Q213.9 76.2 213.9 78.3L213.9 78.3L213.9 79.3L202.2 79.3L202.2 77.3L211.5 77.3Q211.5 76.0 211.0 74.9Q210.5 73.9 209.6 73.3Q208.6 72.8 207.4 72.8L207.4 72.8Q206.0 72.8 204.9 73.5Q203.9 74.1 203.4 75.2Q202.8 76.4 202.8 77.6L202.8 77.6L202.8 79.0Q202.8 80.7 203.4 81.9Q204.0 83.1 205.1 83.7Q206.2 84.3 207.6 84.3L207.6 84.3Q208.5 84.3 209.3 84.1Q210.0 83.8 210.6 83.3Q211.1 82.7 211.4 81.9L211.4 81.9L213.7 82.6Q213.3 83.7 212.5 84.6Q211.6 85.5 210.4 86.0Q209.2 86.4 207.6 86.4ZM217.5 65.8L219.9 65.8L219.9 86.1L217.5 86.1L217.5 65.8ZM230.4 86.4L230.4 86.4Q228.3 86.4 226.7 85.5Q225.2 84.5 224.3 82.7Q223.4 80.9 223.4 78.6L223.4 78.6Q223.4 76.2 224.3 74.4Q225.2 72.6 226.7 71.6Q228.3 70.7 230.4 70.7L230.4 70.7Q232.4 70.7 234.0 71.6Q235.5 72.6 236.4 74.4Q237.3 76.2 237.3 78.6L237.3 78.6Q237.3 80.9 236.4 82.7Q235.5 84.5 234.0 85.5Q232.4 86.4 230.4 86.4ZM230.4 84.3L230.4 84.3Q231.9 84.3 232.9 83.5Q234.0 82.7 234.4 81.4Q234.9 80.1 234.9 78.6L234.9 78.6Q234.9 77.0 234.4 75.7Q234.0 74.4 232.9 73.6Q231.9 72.8 230.4 72.8L230.4 72.8Q228.8 72.8 227.8 73.6Q226.8 74.4 226.3 75.7Q225.8 77.0 225.8 78.6L225.8 78.6Q225.8 80.1 226.3 81.4Q226.8 82.7 227.8 83.5Q228.8 84.3 230.4 84.3ZM243.2 91.9L240.9 91.9L240.9 70.9L243.1 70.9L243.1 73.3L243.4 73.3Q243.7 72.9 244.1 72.3Q244.6 71.6 245.5 71.1Q246.3 70.7 247.8 70.7L247.8 70.7Q249.7 70.7 251.2 71.6Q252.7 72.6 253.5 74.4Q254.3 76.1 254.3 78.5L254.3 78.5Q254.3 81.0 253.5 82.7Q252.7 84.5 251.2 85.5Q249.8 86.4 247.9 86.4L247.9 86.4Q246.4 86.4 245.5 86.0Q244.6 85.5 244.1 84.8Q243.7 84.2 243.4 83.8L243.4 83.8L243.2 83.8L243.2 91.9ZM243.2 78.5L243.2 78.5Q243.2 80.2 243.7 81.5Q244.2 82.9 245.2 83.6Q246.1 84.3 247.5 84.3L247.5 84.3Q249.0 84.3 250.0 83.6Q251.0 82.8 251.5 81.4Q252.0 80.1 252.0 78.5L252.0 78.5Q252.0 76.9 251.5 75.6Q251.0 74.3 250.0 73.5Q249.0 72.8 247.5 72.8L247.5 72.8Q246.1 72.8 245.1 73.5Q244.2 74.2 243.7 75.5Q243.2 76.8 243.2 78.5ZM264.3 86.4L264.3 86.4Q262.1 86.4 260.5 85.5Q258.9 84.5 258.1 82.7Q257.2 81.0 257.2 78.6L257.2 78.6Q257.2 76.3 258.1 74.5Q258.9 72.7 260.5 71.7Q262.0 70.7 264.1 70.7L264.1 70.7Q265.3 70.7 266.4 71.1Q267.6 71.4 268.6 72.3Q269.5 73.2 270.1 74.7Q270.6 76.2 270.6 78.3L270.6 78.3L270.6 79.3L258.9 79.3L258.9 77.3L268.3 77.3Q268.3 76.0 267.7 74.9Q267.2 73.9 266.3 73.3Q265.4 72.8 264.1 72.8L264.1 72.8Q262.7 72.8 261.7 73.5Q260.6 74.1 260.1 75.2Q259.6 76.4 259.6 77.6L259.6 77.6L259.6 79.0Q259.6 80.7 260.2 81.9Q260.8 83.1 261.8 83.7Q262.9 84.3 264.3 84.3L264.3 84.3Q265.2 84.3 266.0 84.1Q266.8 83.8 267.3 83.3Q267.8 82.7 268.1 81.9L268.1 81.9L270.4 82.6Q270.1 83.7 269.2 84.6Q268.4 85.5 267.1 86.0Q265.9 86.4 264.3 86.4ZM276.6 86.1L274.2 86.1L274.2 70.9L276.5 70.9L276.5 73.2L276.7 73.2Q277.1 72.0 278.2 71.3Q279.3 70.6 280.6 70.6L280.6 70.6Q280.9 70.6 281.3 70.6Q281.7 70.6 281.9 70.7L281.9 70.7L281.9 73.0Q281.7 73.0 281.3 72.9Q280.9 72.9 280.4 72.9L280.4 72.9Q279.3 72.9 278.4 73.3Q277.6 73.8 277.1 74.6Q276.6 75.4 276.6 76.5L276.6 76.5L276.6 86.1ZM283.9 83.3L286.4 83.3L286.2 84.4Q286.1 85.5 285.7 86.8Q285.4 88.1 285.0 89.3Q284.6 90.4 284.4 91.1L284.4 91.1L282.6 91.1Q282.7 90.5 283.0 89.4Q283.2 88.4 283.4 87.1Q283.6 85.8 283.7 84.5L283.7 84.5L283.9 83.3Z M308.0 86.1L308.0 86.1L301.7 86.1L301.7 65.8L308.3 65.8Q311.2 65.8 313.3 67.0Q315.5 68.2 316.6 70.5Q317.7 72.7 317.7 75.9L317.7 75.9Q317.7 79.1 316.6 81.4Q315.4 83.7 313.3 84.9Q311.1 86.1 308.0 86.1ZM304.2 67.9L304.2 83.9L307.8 83.9Q310.4 83.9 312.0 83.0Q313.7 82.0 314.5 80.2Q315.3 78.4 315.3 75.9L315.3 75.9Q315.3 73.4 314.5 71.7Q313.7 69.9 312.1 68.9Q310.5 67.9 308.1 67.9L308.1 67.9L304.2 67.9ZM327.7 86.4L327.7 86.4Q325.7 86.4 324.1 85.5Q322.5 84.5 321.7 82.7Q320.8 80.9 320.8 78.6L320.8 78.6Q320.8 76.2 321.7 74.4Q322.5 72.6 324.1 71.6Q325.7 70.7 327.7 70.7L327.7 70.7Q329.8 70.7 331.3 71.6Q332.9 72.6 333.8 74.4Q334.6 76.2 334.6 78.6L334.6 78.6Q334.6 80.9 333.8 82.7Q332.9 84.5 331.3 85.5Q329.8 86.4 327.7 86.4ZM327.7 84.3L327.7 84.3Q329.3 84.3 330.3 83.5Q331.3 82.7 331.8 81.4Q332.3 80.1 332.3 78.6L332.3 78.6Q332.3 77.0 331.8 75.7Q331.3 74.4 330.3 73.6Q329.3 72.8 327.7 72.8L327.7 72.8Q326.2 72.8 325.1 73.6Q324.1 74.4 323.6 75.7Q323.1 77.0 323.1 78.6L323.1 78.6Q323.1 80.1 323.6 81.4Q324.1 82.7 325.1 83.5Q326.2 84.3 327.7 84.3ZM344.4 86.4L344.4 86.4Q342.3 86.4 340.7 85.4Q339.2 84.4 338.3 82.6Q337.5 80.9 337.5 78.6L337.5 78.6Q337.5 76.2 338.4 74.5Q339.2 72.7 340.8 71.7Q342.3 70.7 344.4 70.7L344.4 70.7Q346.0 70.7 347.3 71.3Q348.6 71.8 349.4 72.9Q350.2 74.0 350.4 75.4L350.4 75.4L348.1 75.4Q347.8 74.4 346.9 73.6Q346.0 72.8 344.4 72.8L344.4 72.8Q343.1 72.8 342.0 73.5Q341.0 74.2 340.4 75.5Q339.9 76.8 339.9 78.5L339.9 78.5Q339.9 80.3 340.4 81.6Q341.0 82.9 342.0 83.6Q343.0 84.3 344.4 84.3L344.4 84.3Q345.3 84.3 346.1 84.0Q346.8 83.7 347.3 83.1Q347.9 82.5 348.1 81.7L348.1 81.7L350.4 81.7Q350.2 83.0 349.5 84.1Q348.7 85.2 347.4 85.8Q346.1 86.4 344.4 86.4ZM363.5 79.9L363.5 79.9L363.5 70.9L365.8 70.9L365.8 86.1L363.5 86.1L363.5 83.5L363.3 83.5Q362.8 84.7 361.6 85.5Q360.5 86.3 358.8 86.3L358.8 86.3Q357.4 86.3 356.2 85.7Q355.1 85.1 354.5 83.8Q353.9 82.5 353.9 80.6L353.9 80.6L353.9 70.9L356.2 70.9L356.2 80.4Q356.2 82.1 357.1 83.1Q358.1 84.1 359.5 84.1L359.5 84.1Q360.4 84.1 361.3 83.6Q362.2 83.2 362.9 82.2Q363.5 81.3 363.5 79.9ZM372.5 86.1L370.1 86.1L370.1 70.9L372.4 70.9L372.4 73.2L372.6 73.2Q373.1 72.0 374.1 71.3Q375.2 70.7 376.7 70.7L376.7 70.7Q378.2 70.7 379.2 71.3Q380.2 72.0 380.8 73.2L380.8 73.2L380.9 73.2Q381.5 72.1 382.7 71.4Q383.9 70.7 385.5 70.7L385.5 70.7Q387.6 70.7 388.9 71.9Q390.2 73.2 390.2 75.9L390.2 75.9L390.2 86.1L387.8 86.1L387.8 75.9Q387.8 74.2 386.9 73.5Q386.0 72.8 384.7 72.8L384.7 72.8Q383.1 72.8 382.2 73.7Q381.3 74.7 381.3 76.2L381.3 76.2L381.3 86.1L378.9 86.1L378.9 75.7Q378.9 74.4 378.1 73.6Q377.3 72.8 375.9 72.8L375.9 72.8Q375.0 72.8 374.2 73.2Q373.4 73.7 372.9 74.6Q372.5 75.5 372.5 76.6L372.5 76.6L372.5 86.1ZM400.9 86.4L400.9 86.4Q398.7 86.4 397.1 85.5Q395.5 84.5 394.6 82.7Q393.7 81.0 393.7 78.6L393.7 78.6Q393.7 76.3 394.6 74.5Q395.5 72.7 397.0 71.7Q398.6 70.7 400.6 70.7L400.6 70.7Q401.8 70.7 403.0 71.1Q404.1 71.4 405.1 72.3Q406.1 73.2 406.6 74.7Q407.2 76.2 407.2 78.3L407.2 78.3L407.2 79.3L395.4 79.3L395.4 77.3L404.8 77.3Q404.8 76.0 404.3 74.9Q403.8 73.9 402.8 73.3Q401.9 72.8 400.6 72.8L400.6 72.8Q399.2 72.8 398.2 73.5Q397.2 74.1 396.6 75.2Q396.1 76.4 396.1 77.6L396.1 77.6L396.1 79.0Q396.1 80.7 396.7 81.9Q397.3 83.1 398.4 83.7Q399.4 84.3 400.9 84.3L400.9 84.3Q401.8 84.3 402.5 84.1Q403.3 83.8 403.8 83.3Q404.4 82.7 404.7 81.9L404.7 81.9L406.9 82.6Q406.6 83.7 405.7 84.6Q404.9 85.5 403.7 86.0Q402.4 86.4 400.9 86.4ZM413.1 76.9L413.1 76.9L413.1 86.1L410.8 86.1L410.8 70.9L413.0 70.9L413.0 73.2L413.2 73.2Q413.8 72.1 414.9 71.4Q416.0 70.7 417.7 70.7L417.7 70.7Q419.2 70.7 420.4 71.3Q421.6 71.9 422.2 73.2Q422.9 74.5 422.9 76.4L422.9 76.4L422.9 86.1L420.5 86.1L420.5 76.6Q420.5 74.8 419.6 73.8Q418.6 72.8 417.0 72.8L417.0 72.8Q415.9 72.8 415.0 73.2Q414.1 73.7 413.6 74.7Q413.1 75.6 413.1 76.9ZM425.9 70.9L433.8 70.9L433.8 72.8L425.9 72.8L425.9 70.9ZM428.2 82.4L428.2 67.2L430.5 67.2L430.5 81.8Q430.5 82.7 430.8 83.2Q431.1 83.7 431.6 83.9Q432.0 84.1 432.6 84.1L432.6 84.1Q433.0 84.1 433.2 84.0Q433.4 84.0 433.6 83.9L433.6 83.9L434.1 86.0Q433.8 86.1 433.4 86.2Q433.0 86.3 432.3 86.3L432.3 86.3Q431.3 86.3 430.4 85.9Q429.4 85.5 428.8 84.6Q428.2 83.7 428.2 82.4L428.2 82.4ZM441.8 86.5L441.8 86.5Q440.4 86.5 439.2 85.9Q438.0 85.4 437.3 84.3Q436.6 83.3 436.6 81.8L436.6 81.8Q436.6 80.5 437.1 79.7Q437.7 78.8 438.5 78.4Q439.4 77.9 440.4 77.7Q441.5 77.4 442.5 77.3L442.5 77.3Q443.9 77.1 444.8 77.0Q445.7 76.9 446.1 76.7Q446.5 76.5 446.5 75.9L446.5 75.9L446.5 75.8Q446.5 74.4 445.7 73.5Q444.9 72.7 443.3 72.7L443.3 72.7Q441.6 72.7 440.6 73.5Q439.7 74.2 439.3 75.0L439.3 75.0L437.1 74.2Q437.7 72.8 438.7 72.1Q439.7 71.3 440.8 71.0Q442.0 70.7 443.2 70.7L443.2 70.7Q443.9 70.7 444.9 70.8Q445.8 71.0 446.7 71.5Q447.6 72.1 448.2 73.2Q448.8 74.2 448.8 76.1L448.8 76.1L448.8 86.1L446.5 86.1L446.5 84.1L446.4 84.1Q446.1 84.6 445.6 85.1Q445.0 85.7 444.1 86.1Q443.2 86.5 441.8 86.5ZM442.2 84.4L442.2 84.4Q443.6 84.4 444.5 83.8Q445.5 83.3 446.0 82.4Q446.5 81.6 446.5 80.6L446.5 80.6L446.5 78.4Q446.3 78.6 445.8 78.8Q445.3 78.9 444.7 79.0Q444.0 79.1 443.4 79.2Q442.8 79.3 442.4 79.3L442.4 79.3Q441.5 79.4 440.7 79.7Q439.9 80.0 439.4 80.5Q439.0 81.0 439.0 81.9L439.0 81.9Q439.0 83.1 439.9 83.8Q440.8 84.4 442.2 84.4ZM451.9 70.9L459.8 70.9L459.8 72.8L451.9 72.8L451.9 70.9ZM454.2 82.4L454.2 67.2L456.5 67.2L456.5 81.8Q456.5 82.7 456.8 83.2Q457.1 83.7 457.6 83.9Q458.0 84.1 458.5 84.1L458.5 84.1Q458.9 84.1 459.2 84.0Q459.4 84.0 459.6 83.9L459.6 83.9L460.0 86.0Q459.8 86.1 459.4 86.2Q459.0 86.3 458.3 86.3L458.3 86.3Q457.3 86.3 456.4 85.9Q455.4 85.5 454.8 84.6Q454.2 83.7 454.2 82.4L454.2 82.4ZM465.7 86.1L463.3 86.1L463.3 70.9L465.7 70.9L465.7 86.1ZM464.5 68.3L464.5 68.3Q463.8 68.3 463.3 67.8Q462.8 67.4 462.8 66.7L462.8 66.7Q462.8 66.1 463.3 65.6Q463.8 65.1 464.5 65.1L464.5 65.1Q465.2 65.1 465.7 65.6Q466.2 66.1 466.2 66.7L466.2 66.7Q466.2 67.4 465.7 67.8Q465.2 68.3 464.5 68.3ZM476.2 86.4L476.2 86.4Q474.1 86.4 472.5 85.5Q471.0 84.5 470.1 82.7Q469.2 80.9 469.2 78.6L469.2 78.6Q469.2 76.2 470.1 74.4Q471.0 72.6 472.5 71.6Q474.1 70.7 476.2 70.7L476.2 70.7Q478.2 70.7 479.8 71.6Q481.3 72.6 482.2 74.4Q483.1 76.2 483.1 78.6L483.1 78.6Q483.1 80.9 482.2 82.7Q481.3 84.5 479.8 85.5Q478.2 86.4 476.2 86.4ZM476.2 84.3L476.2 84.3Q477.7 84.3 478.7 83.5Q479.8 82.7 480.2 81.4Q480.7 80.1 480.7 78.6L480.7 78.6Q480.7 77.0 480.2 75.7Q479.8 74.4 478.7 73.6Q477.7 72.8 476.2 72.8L476.2 72.8Q474.6 72.8 473.6 73.6Q472.6 74.4 472.1 75.7Q471.6 77.0 471.6 78.6L471.6 78.6Q471.6 80.1 472.1 81.4Q472.6 82.7 473.6 83.5Q474.6 84.3 476.2 84.3ZM489.0 76.9L489.0 76.9L489.0 86.1L486.7 86.1L486.7 70.9L488.9 70.9L488.9 73.2L489.1 73.2Q489.7 72.1 490.7 71.4Q491.8 70.7 493.6 70.7L493.6 70.7Q495.1 70.7 496.3 71.3Q497.5 71.9 498.1 73.2Q498.7 74.5 498.7 76.4L498.7 76.4L498.7 86.1L496.4 86.1L496.4 76.6Q496.4 74.8 495.5 73.8Q494.5 72.8 492.9 72.8L492.9 72.8Q491.8 72.8 490.9 73.2Q490.0 73.7 489.5 74.7Q489.0 75.6 489.0 76.9Z M513.7 86.1L511.2 86.1L511.2 65.8L523.4 65.8L523.4 67.9L513.7 67.9L513.7 74.8L522.5 74.8L522.5 77.0L513.7 77.0L513.7 86.1ZM531.8 86.5L531.8 86.5Q530.4 86.5 529.2 85.9Q528.0 85.4 527.3 84.3Q526.6 83.3 526.6 81.8L526.6 81.8Q526.6 80.5 527.1 79.7Q527.7 78.8 528.5 78.4Q529.4 77.9 530.4 77.7Q531.5 77.4 532.6 77.3L532.6 77.3Q533.9 77.1 534.8 77.0Q535.7 76.9 536.1 76.7Q536.5 76.5 536.5 75.9L536.5 75.9L536.5 75.8Q536.5 74.4 535.7 73.5Q534.9 72.7 533.3 72.7L533.3 72.7Q531.6 72.7 530.6 73.5Q529.7 74.2 529.3 75.0L529.3 75.0L527.1 74.2Q527.7 72.8 528.7 72.1Q529.7 71.3 530.8 71.0Q532.0 70.7 533.2 70.7L533.2 70.7Q533.9 70.7 534.9 70.8Q535.8 71.0 536.7 71.5Q537.6 72.1 538.2 73.2Q538.8 74.2 538.8 76.1L538.8 76.1L538.8 86.1L536.5 86.1L536.5 84.1L536.4 84.1Q536.1 84.6 535.6 85.1Q535.0 85.7 534.1 86.1Q533.2 86.5 531.8 86.5ZM532.2 84.4L532.2 84.4Q533.6 84.4 534.5 83.8Q535.5 83.3 536.0 82.4Q536.5 81.6 536.5 80.6L536.5 80.6L536.5 78.4Q536.3 78.6 535.8 78.8Q535.3 78.9 534.7 79.0Q534.0 79.1 533.4 79.2Q532.8 79.3 532.4 79.3L532.4 79.3Q531.5 79.4 530.7 79.7Q529.9 80.0 529.5 80.5Q529.0 81.0 529.0 81.9L529.0 81.9Q529.0 83.1 529.9 83.8Q530.8 84.4 532.2 84.4ZM545.5 76.9L545.5 76.9L545.5 86.1L543.1 86.1L543.1 70.9L545.4 70.9L545.4 73.2L545.6 73.2Q546.1 72.1 547.2 71.4Q548.3 70.7 550.1 70.7L550.1 70.7Q551.6 70.7 552.8 71.3Q553.9 71.9 554.6 73.2Q555.2 74.5 555.2 76.4L555.2 76.4L555.2 86.1L552.9 86.1L552.9 76.6Q552.9 74.8 551.9 73.8Q551.0 72.8 549.4 72.8L549.4 72.8Q548.3 72.8 547.4 73.2Q546.5 73.7 546.0 74.7Q545.5 75.6 545.5 76.9ZM564.0 86.5L564.0 86.5Q562.6 86.5 561.4 85.9Q560.2 85.4 559.5 84.3Q558.8 83.3 558.8 81.8L558.8 81.8Q558.8 80.5 559.3 79.7Q559.8 78.8 560.7 78.4Q561.6 77.9 562.6 77.7Q563.7 77.4 564.7 77.3L564.7 77.3Q566.1 77.1 567.0 77.0Q567.9 76.9 568.3 76.7Q568.7 76.5 568.7 75.9L568.7 75.9L568.7 75.8Q568.7 74.4 567.9 73.5Q567.1 72.7 565.4 72.7L565.4 72.7Q563.8 72.7 562.8 73.5Q561.9 74.2 561.5 75.0L561.5 75.0L559.2 74.2Q559.8 72.8 560.8 72.1Q561.8 71.3 563.0 71.0Q564.2 70.7 565.4 70.7L565.4 70.7Q566.1 70.7 567.1 70.8Q568.0 71.0 568.9 71.5Q569.8 72.1 570.4 73.2Q571.0 74.2 571.0 76.1L571.0 76.1L571.0 86.1L568.7 86.1L568.7 84.1L568.5 84.1Q568.3 84.6 567.7 85.1Q567.2 85.7 566.3 86.1Q565.3 86.5 564.0 86.5ZM564.4 84.4L564.4 84.4Q565.8 84.4 566.7 83.8Q567.7 83.3 568.2 82.4Q568.7 81.6 568.7 80.6L568.7 80.6L568.7 78.4Q568.5 78.6 568.0 78.8Q567.5 78.9 566.9 79.0Q566.2 79.1 565.6 79.2Q565.0 79.3 564.6 79.3L564.6 79.3Q563.7 79.4 562.9 79.7Q562.1 80.0 561.6 80.5Q561.1 81.0 561.1 81.9L561.1 81.9Q561.1 83.1 562.1 83.8Q563.0 84.4 564.4 84.4ZM574.0 70.9L581.9 70.9L581.9 72.8L574.0 72.8L574.0 70.9ZM576.3 82.4L576.3 67.2L578.7 67.2L578.7 81.8Q578.7 82.7 579.0 83.2Q579.3 83.7 579.7 83.9Q580.2 84.1 580.7 84.1L580.7 84.1Q581.1 84.1 581.4 84.0Q581.6 84.0 581.7 83.9L581.7 83.9L582.2 86.0Q582.0 86.1 581.6 86.2Q581.1 86.3 580.5 86.3L580.5 86.3Q579.5 86.3 578.5 85.9Q577.6 85.5 577.0 84.6Q576.3 83.7 576.3 82.4L576.3 82.4ZM587.8 86.1L585.5 86.1L585.5 70.9L587.8 70.9L587.8 86.1ZM586.7 68.3L586.7 68.3Q586.0 68.3 585.5 67.8Q585.0 67.4 585.0 66.7L585.0 66.7Q585.0 66.1 585.5 65.6Q586.0 65.1 586.7 65.1L586.7 65.1Q587.4 65.1 587.9 65.6Q588.4 66.1 588.4 66.7L588.4 66.7Q588.4 67.4 587.9 67.8Q587.4 68.3 586.7 68.3ZM598.3 86.4L598.3 86.4Q596.2 86.4 594.6 85.4Q593.1 84.4 592.2 82.6Q591.4 80.9 591.4 78.6L591.4 78.6Q591.4 76.2 592.3 74.5Q593.1 72.7 594.7 71.7Q596.2 70.7 598.3 70.7L598.3 70.7Q599.9 70.7 601.2 71.3Q602.5 71.8 603.3 72.9Q604.1 74.0 604.3 75.4L604.3 75.4L602.0 75.4Q601.7 74.4 600.8 73.6Q599.9 72.8 598.3 72.8L598.3 72.8Q597.0 72.8 595.9 73.5Q594.9 74.2 594.3 75.5Q593.8 76.8 593.8 78.5L593.8 78.5Q593.8 80.3 594.3 81.6Q594.9 82.9 595.9 83.6Q596.9 84.3 598.3 84.3L598.3 84.3Q599.2 84.3 600.0 84.0Q600.7 83.7 601.3 83.1Q601.8 82.5 602.0 81.7L602.0 81.7L604.3 81.7Q604.1 83.0 603.4 84.1Q602.6 85.2 601.3 85.8Q600.0 86.4 598.3 86.4Z "/><mask id="satori_om-id-2"><rect x="20" y="110" width="760" height="13" fill="#fff"/></mask><path fill="hsl(8.5,82.4%,53.1%)" d="M24.8 124.5L24.8 124.5L20.9 124.5L20.9 113.6L24.8 113.6Q26.5 113.6 27.7 114.3Q28.9 114.9 29.5 116.1Q30.2 117.4 30.2 119.1L30.2 119.1Q30.2 120.8 29.5 122.0Q28.9 123.2 27.7 123.9Q26.5 124.5 24.8 124.5ZM23.3 115.6L23.3 122.6L24.7 122.6Q25.7 122.6 26.4 122.2Q27.1 121.8 27.5 121.1Q27.9 120.3 27.9 119.1L27.9 119.1Q27.9 117.9 27.5 117.1Q27.1 116.3 26.4 116.0Q25.7 115.6 24.7 115.6L24.7 115.6L23.3 115.6ZM32.9 113.6L35.2 113.6L35.2 124.5L32.9 124.5L32.9 113.6ZM46.2 116.8L44.0 116.8Q43.9 116.1 43.4 115.8Q42.9 115.4 42.1 115.4L42.1 115.4Q41.6 115.4 41.2 115.6Q40.8 115.7 40.6 116.0Q40.4 116.3 40.4 116.6L40.4 116.6Q40.4 116.9 40.5 117.1Q40.6 117.4 40.9 117.5Q41.1 117.7 41.4 117.8Q41.7 117.9 42.1 118.0L42.1 118.0L43.1 118.2Q43.8 118.4 44.4 118.6Q45.0 118.9 45.4 119.3Q45.9 119.7 46.1 120.2Q46.3 120.7 46.3 121.4L46.3 121.4Q46.3 122.4 45.8 123.1Q45.3 123.9 44.4 124.3Q43.4 124.7 42.1 124.7L42.1 124.7Q40.8 124.7 39.8 124.3Q38.8 123.9 38.3 123.1Q37.7 122.3 37.7 121.1L37.7 121.1L39.9 121.1Q40.0 121.7 40.3 122.0Q40.5 122.4 41.0 122.6Q41.5 122.8 42.1 122.8L42.1 122.8Q42.7 122.8 43.1 122.6Q43.5 122.4 43.8 122.1Q44.0 121.8 44.0 121.4L44.0 121.4Q44.0 121.0 43.8 120.8Q43.6 120.5 43.2 120.4Q42.8 120.2 42.2 120.0L42.2 120.0L41.0 119.7Q39.6 119.4 38.8 118.7Q38.0 118.0 38.0 116.8L38.0 116.8Q38.0 115.8 38.5 115.0Q39.1 114.3 40.0 113.9Q40.9 113.5 42.1 113.5L42.1 113.5Q43.3 113.5 44.3 113.9Q45.2 114.3 45.7 115.0Q46.2 115.8 46.2 116.8L46.2 116.8ZM58.5 117.4L58.5 117.4L56.2 117.4Q56.1 117.0 55.9 116.6Q55.7 116.3 55.4 116.0Q55.1 115.8 54.7 115.6Q54.3 115.5 53.8 115.5L53.8 115.5Q53.0 115.5 52.4 115.9Q51.7 116.3 51.4 117.1Q51.0 117.9 51.0 119.1L51.0 119.1Q51.0 120.2 51.4 121.0Q51.7 121.8 52.4 122.2Q53.0 122.6 53.8 122.6L53.8 122.6Q54.3 122.6 54.7 122.5Q55.1 122.4 55.4 122.2Q55.7 121.9 55.9 121.6Q56.1 121.2 56.2 120.8L56.2 120.8L58.5 120.8Q58.4 121.6 58.1 122.3Q57.7 123.0 57.1 123.5Q56.5 124.0 55.7 124.4Q54.8 124.7 53.8 124.7L53.8 124.7Q52.3 124.7 51.2 124.0Q50.0 123.4 49.4 122.1Q48.7 120.9 48.7 119.1L48.7 119.1Q48.7 117.3 49.4 116.0Q50.0 114.8 51.2 114.1Q52.3 113.5 53.8 113.5L53.8 113.5Q54.7 113.5 55.5 113.7Q56.4 114.0 57.0 114.5Q57.6 115.0 58.0 115.8Q58.4 116.5 58.5 117.4ZM71.2 119.1L71.2 119.1Q71.2 120.9 70.5 122.1Q69.8 123.4 68.7 124.0Q67.5 124.7 66.1 124.7L66.1 124.7Q64.6 124.7 63.5 124.0Q62.3 123.4 61.6 122.1Q61.0 120.9 61.0 119.1L61.0 119.1Q61.0 117.3 61.6 116.0Q62.3 114.8 63.5 114.1Q64.6 113.5 66.1 113.5L66.1 113.5Q67.5 113.5 68.7 114.1Q69.8 114.8 70.5 116.0Q71.2 117.3 71.2 119.1ZM68.9 119.1L68.9 119.1Q68.9 117.9 68.5 117.1Q68.2 116.3 67.5 115.9Q66.9 115.5 66.1 115.5L66.1 115.5Q65.3 115.5 64.6 115.9Q64.0 116.3 63.7 117.1Q63.3 117.9 63.3 119.1L63.3 119.1Q63.3 120.2 63.7 121.0Q64.0 121.8 64.6 122.2Q65.3 122.6 66.1 122.6L66.1 122.6Q66.9 122.6 67.5 122.2Q68.2 121.8 68.5 121.0Q68.9 120.2 68.9 119.1ZM76.2 124.5L73.9 124.5L73.9 113.6L78.2 113.6Q79.4 113.6 80.3 114.1Q81.2 114.5 81.7 115.3Q82.1 116.1 82.1 117.2L82.1 117.2Q82.1 118.3 81.6 119.1Q81.2 119.8 80.3 120.2Q79.4 120.7 78.1 120.7L78.1 120.7L75.3 120.7L75.3 118.8L77.8 118.8Q78.4 118.8 78.9 118.6Q79.3 118.4 79.5 118.1Q79.7 117.7 79.7 117.2L79.7 117.2Q79.7 116.6 79.5 116.3Q79.3 115.9 78.9 115.7Q78.4 115.5 77.8 115.5L77.8 115.5L76.2 115.5L76.2 124.5ZM77.3 119.6L79.8 119.6L82.5 124.5L80.0 124.5L77.3 119.6ZM88.6 124.5L88.6 124.5L84.7 124.5L84.7 113.6L88.6 113.6Q90.3 113.6 91.5 114.3Q92.7 114.9 93.3 116.1Q93.9 117.4 93.9 119.1L93.9 119.1Q93.9 120.8 93.3 122.0Q92.7 123.2 91.5 123.9Q90.3 124.5 88.6 124.5ZM87.0 115.6L87.0 122.6L88.5 122.6Q89.5 122.6 90.2 122.2Q90.9 121.8 91.3 121.1Q91.6 120.3 91.6 119.1L91.6 119.1Q91.6 117.9 91.3 117.1Q90.9 116.3 90.2 116.0Q89.5 115.6 88.5 115.6L88.5 115.6L87.0 115.6Z "/><mask id="satori_om-id-3"><rect x="20" y="133" width="760" height="26" fill="#fff"/></mask><path fill="#e2e8f0" d="M36.0 144.9L33.6 144.9Q33.4 143.3 32.2 142.5Q30.9 141.7 29.0 141.7L29.0 141.7Q27.7 141.7 26.7 142.1Q25.7 142.5 25.1 143.3Q24.5 144.1 24.5 145.1L24.5 145.1Q24.5 145.9 24.9 146.4Q25.3 147.0 25.9 147.4Q26.6 147.8 27.2 148.0Q27.9 148.3 28.5 148.4L28.5 148.4L30.5 149.0Q31.3 149.2 32.3 149.6Q33.3 149.9 34.2 150.6Q35.1 151.2 35.7 152.2Q36.3 153.2 36.3 154.6L36.3 154.6Q36.3 156.2 35.4 157.6Q34.5 158.9 32.9 159.7Q31.3 160.5 28.9 160.5L28.9 160.5Q26.7 160.5 25.1 159.8Q23.5 159.1 22.6 157.8Q21.7 156.5 21.6 154.9L21.6 154.9L24.1 154.9Q24.2 156.0 24.9 156.8Q25.6 157.5 26.6 157.9Q27.7 158.3 28.9 158.3L28.9 158.3Q30.3 158.3 31.4 157.8Q32.6 157.3 33.2 156.5Q33.9 155.7 33.9 154.6L33.9 154.6Q33.9 153.5 33.3 152.9Q32.7 152.3 31.8 151.9Q30.9 151.5 29.8 151.2L29.8 151.2L27.3 150.5Q24.9 149.8 23.5 148.5Q22.1 147.2 22.1 145.2L22.1 145.2Q22.1 143.5 23.1 142.2Q24.0 140.9 25.6 140.2Q27.2 139.5 29.1 139.5L29.1 139.5Q31.1 139.5 32.6 140.2Q34.1 140.9 35.0 142.1Q35.9 143.3 36.0 144.9L36.0 144.9ZM49.6 153.9L49.6 153.9L49.6 144.9L52.0 144.9L52.0 160.1L49.6 160.1L49.6 157.5L49.5 157.5Q48.9 158.7 47.8 159.5Q46.7 160.3 44.9 160.3L44.9 160.3Q43.5 160.3 42.4 159.7Q41.3 159.1 40.6 157.8Q40.0 156.5 40.0 154.6L40.0 154.6L40.0 144.9L42.4 144.9L42.4 154.4Q42.4 156.1 43.3 157.1Q44.2 158.1 45.7 158.1L45.7 158.1Q46.6 158.1 47.5 157.6Q48.4 157.2 49.0 156.2Q49.6 155.3 49.6 153.9ZM58.6 165.9L56.3 165.9L56.3 144.9L58.5 144.9L58.5 147.3L58.8 147.3Q59.1 146.9 59.5 146.3Q60.0 145.6 60.9 145.1Q61.7 144.7 63.2 144.7L63.2 144.7Q65.2 144.7 66.6 145.6Q68.1 146.6 68.9 148.4Q69.8 150.1 69.8 152.5L69.8 152.5Q69.8 155.0 68.9 156.7Q68.1 158.5 66.6 159.5Q65.2 160.4 63.3 160.4L63.3 160.4Q61.8 160.4 60.9 160.0Q60.0 159.5 59.6 158.8Q59.1 158.2 58.8 157.8L58.8 157.8L58.6 157.8L58.6 165.9ZM58.6 152.5L58.6 152.5Q58.6 154.2 59.1 155.5Q59.6 156.9 60.6 157.6Q61.5 158.3 63.0 158.3L63.0 158.3Q64.4 158.3 65.4 157.6Q66.4 156.8 66.9 155.4Q67.4 154.1 67.4 152.5L67.4 152.5Q67.4 150.9 66.9 149.6Q66.4 148.3 65.4 147.5Q64.4 146.8 63.0 146.8L63.0 146.8Q61.5 146.8 60.5 147.5Q59.6 148.2 59.1 149.5Q58.6 150.8 58.6 152.5ZM75.7 165.9L73.3 165.9L73.3 144.9L75.6 144.9L75.6 147.3L75.9 147.3Q76.1 146.9 76.6 146.3Q77.1 145.6 77.9 145.1Q78.8 144.7 80.3 144.7L80.3 144.7Q82.2 144.7 83.7 145.6Q85.2 146.6 86.0 148.4Q86.8 150.1 86.8 152.5L86.8 152.5Q86.8 155.0 86.0 156.7Q85.2 158.5 83.7 159.5Q82.2 160.4 80.3 160.4L80.3 160.4Q78.9 160.4 78.0 160.0Q77.1 159.5 76.6 158.8Q76.1 158.2 75.9 157.8L75.9 157.8L75.7 157.8L75.7 165.9ZM75.6 152.5L75.6 152.5Q75.6 154.2 76.1 155.5Q76.7 156.9 77.6 157.6Q78.6 158.3 80.0 158.3L80.0 158.3Q81.5 158.3 82.5 157.6Q83.5 156.8 84.0 155.4Q84.5 154.1 84.5 152.5L84.5 152.5Q84.5 150.9 84.0 149.6Q83.5 148.3 82.5 147.5Q81.5 146.8 80.0 146.8L80.0 146.8Q78.6 146.8 77.6 147.5Q76.6 148.2 76.1 149.5Q75.6 150.8 75.6 152.5ZM96.6 160.4L96.6 160.4Q94.5 160.4 93.0 159.5Q91.4 158.5 90.6 156.7Q89.7 154.9 89.7 152.6L89.7 152.6Q89.7 150.2 90.6 148.4Q91.4 146.6 93.0 145.6Q94.5 144.7 96.6 144.7L96.6 144.7Q98.7 144.7 100.2 145.6Q101.8 146.6 102.7 148.4Q103.5 150.2 103.5 152.6L103.5 152.6Q103.5 154.9 102.7 156.7Q101.8 158.5 100.2 159.5Q98.7 160.4 96.6 160.4ZM96.6 158.3L96.6 158.3Q98.2 158.3 99.2 157.5Q100.2 156.7 100.7 155.4Q101.2 154.1 101.2 152.6L101.2 152.6Q101.2 151.0 100.7 149.7Q100.2 148.4 99.2 147.6Q98.2 146.8 96.6 146.8L96.6 146.8Q95.0 146.8 94.0 147.6Q93.0 148.4 92.5 149.7Q92.0 151.0 92.0 152.6L92.0 152.6Q92.0 154.1 92.5 155.4Q93.0 156.7 94.0 157.5Q95.0 158.3 96.6 158.3ZM109.4 160.1L107.1 160.1L107.1 144.9L109.4 144.9L109.4 147.2L109.5 147.2Q109.9 146.0 111.0 145.3Q112.1 144.6 113.5 144.6L113.5 144.6Q113.8 144.6 114.2 144.6Q114.5 144.6 114.7 144.7L114.7 144.7L114.7 147.0Q114.6 147.0 114.2 146.9Q113.8 146.9 113.3 146.9L113.3 146.9Q112.2 146.9 111.3 147.3Q110.5 147.8 110.0 148.6Q109.4 149.4 109.4 150.5L109.4 150.5L109.4 160.1ZM117.2 144.9L125.1 144.9L125.1 146.8L117.2 146.8L117.2 144.9ZM119.5 156.4L119.5 141.2L121.9 141.2L121.9 155.8Q121.9 156.7 122.2 157.2Q122.4 157.7 122.9 157.9Q123.4 158.1 123.9 158.1L123.9 158.1Q124.3 158.1 124.5 158.0Q124.8 158.0 124.9 157.9L124.9 157.9L125.4 160.0Q125.2 160.1 124.7 160.2Q124.3 160.3 123.6 160.3L123.6 160.3Q122.7 160.3 121.7 159.9Q120.8 159.5 120.1 158.6Q119.5 157.7 119.5 156.4L119.5 156.4Z M138.4 160.1L135.9 160.1L135.9 139.8L142.8 139.8Q145.2 139.8 146.7 140.6Q148.2 141.5 149.0 142.9Q149.7 144.4 149.7 146.2L149.7 146.2Q149.7 148.0 149.0 149.5Q148.2 150.9 146.7 151.8Q145.2 152.7 142.8 152.7L142.8 152.7L137.9 152.7L137.9 150.5L142.7 150.5Q144.4 150.5 145.4 149.9Q146.4 149.4 146.8 148.4Q147.3 147.4 147.3 146.2L147.3 146.2Q147.3 145.0 146.8 144.0Q146.4 143.1 145.4 142.5Q144.4 141.9 142.7 141.9L142.7 141.9L138.4 141.9L138.4 160.1ZM157.9 160.5L157.9 160.5Q156.4 160.5 155.2 159.9Q154.0 159.4 153.3 158.3Q152.6 157.3 152.6 155.8L152.6 155.8Q152.6 154.5 153.2 153.7Q153.7 152.8 154.5 152.4Q155.4 151.9 156.5 151.7Q157.5 151.4 158.6 151.3L158.6 151.3Q160.0 151.1 160.8 151.0Q161.7 150.9 162.1 150.7Q162.5 150.5 162.5 149.9L162.5 149.9L162.5 149.8Q162.5 148.4 161.7 147.5Q160.9 146.7 159.3 146.7L159.3 146.7Q157.6 146.7 156.6 147.5Q155.7 148.2 155.3 149.0L155.3 149.0L153.1 148.2Q153.7 146.8 154.7 146.1Q155.7 145.3 156.9 145.0Q158.1 144.7 159.2 144.7L159.2 144.7Q159.9 144.7 160.9 144.8Q161.9 145.0 162.8 145.5Q163.7 146.1 164.3 147.2Q164.9 148.2 164.9 150.1L164.9 150.1L164.9 160.1L162.5 160.1L162.5 158.1L162.4 158.1Q162.1 158.6 161.6 159.1Q161.0 159.7 160.1 160.1Q159.2 160.5 157.9 160.5ZM158.2 158.4L158.2 158.4Q159.6 158.4 160.6 157.8Q161.5 157.3 162.0 156.4Q162.5 155.6 162.5 154.6L162.5 154.6L162.5 152.4Q162.4 152.6 161.9 152.8Q161.4 152.9 160.7 153.0Q160.0 153.1 159.4 153.2Q158.8 153.3 158.4 153.3L158.4 153.3Q157.5 153.4 156.7 153.7Q156.0 154.0 155.5 154.5Q155.0 155.0 155.0 155.9L155.0 155.9Q155.0 157.1 155.9 157.8Q156.8 158.4 158.2 158.4ZM167.9 144.9L175.8 144.9L175.8 146.8L167.9 146.8L167.9 144.9ZM170.2 156.4L170.2 141.2L172.5 141.2L172.5 155.8Q172.5 156.7 172.8 157.2Q173.1 157.7 173.6 157.9Q174.0 158.1 174.6 158.1L174.6 158.1Q174.9 158.1 175.2 158.0Q175.4 158.0 175.6 157.9L175.6 157.9L176.1 160.0Q175.8 160.1 175.4 160.2Q175.0 160.3 174.3 160.3L174.3 160.3Q173.3 160.3 172.4 159.9Q171.4 159.5 170.8 158.6Q170.2 157.7 170.2 156.4L170.2 156.4ZM181.7 160.1L179.3 160.1L179.3 144.9L181.6 144.9L181.6 147.2L181.8 147.2Q182.2 146.0 183.3 145.3Q184.4 144.6 185.7 144.6L185.7 144.6Q186.0 144.6 186.4 144.6Q186.8 144.6 187.0 144.7L187.0 144.7L187.0 147.0Q186.8 147.0 186.4 146.9Q186.0 146.9 185.5 146.9L185.5 146.9Q184.4 146.9 183.6 147.3Q182.7 147.8 182.2 148.6Q181.7 149.4 181.7 150.5L181.7 150.5L181.7 160.1ZM195.5 160.4L195.5 160.4Q193.4 160.4 191.9 159.5Q190.3 158.5 189.4 156.7Q188.6 154.9 188.6 152.6L188.6 152.6Q188.6 150.2 189.4 148.4Q190.3 146.6 191.9 145.6Q193.4 144.7 195.5 144.7L195.5 144.7Q197.5 144.7 199.1 145.6Q200.7 146.6 201.5 148.4Q202.4 150.2 202.4 152.6L202.4 152.6Q202.4 154.9 201.5 156.7Q200.7 158.5 199.1 159.5Q197.5 160.4 195.5 160.4ZM195.5 158.3L195.5 158.3Q197.0 158.3 198.1 157.5Q199.1 156.7 199.6 155.4Q200.1 154.1 200.1 152.6L200.1 152.6Q200.1 151.0 199.6 149.7Q199.1 148.4 198.1 147.6Q197.0 146.8 195.5 146.8L195.5 146.8Q193.9 146.8 192.9 147.6Q191.9 148.4 191.4 149.7Q190.9 151.0 190.9 152.6L190.9 152.6Q190.9 154.1 191.4 155.4Q191.9 156.7 192.9 157.5Q193.9 158.3 195.5 158.3ZM206.0 139.8L208.3 139.8L208.3 160.1L206.0 160.1L206.0 139.8Z M225.5 160.5L225.5 160.5Q224.0 160.5 222.8 159.9Q221.6 159.4 221.0 158.3Q220.3 157.3 220.3 155.8L220.3 155.8Q220.3 154.5 220.8 153.7Q221.3 152.8 222.2 152.4Q223.0 151.9 224.1 151.7Q225.1 151.4 226.2 151.3L226.2 151.3Q227.6 151.1 228.4 151.0Q229.3 150.9 229.7 150.7Q230.1 150.5 230.1 149.9L230.1 149.9L230.1 149.8Q230.1 148.4 229.3 147.5Q228.5 146.7 226.9 146.7L226.9 146.7Q225.2 146.7 224.3 147.5Q223.3 148.2 222.9 149.0L222.9 149.0L220.7 148.2Q221.3 146.8 222.3 146.1Q223.3 145.3 224.5 145.0Q225.7 144.7 226.8 144.7L226.8 144.7Q227.6 144.7 228.5 144.8Q229.5 145.0 230.4 145.5Q231.3 146.1 231.9 147.2Q232.5 148.2 232.5 150.1L232.5 150.1L232.5 160.1L230.1 160.1L230.1 158.1L230 158.1Q229.8 158.6 229.2 159.1Q228.6 159.7 227.7 160.1Q226.8 160.5 225.5 160.5ZM225.8 158.4L225.8 158.4Q227.2 158.4 228.2 157.8Q229.1 157.3 229.6 156.4Q230.1 155.6 230.1 154.6L230.1 154.6L230.1 152.4Q230.0 152.6 229.5 152.8Q229.0 152.9 228.3 153.0Q227.7 153.1 227.1 153.2Q226.4 153.3 226.1 153.3L226.1 153.3Q225.1 153.4 224.4 153.7Q223.6 154.0 223.1 154.5Q222.6 155.0 222.6 155.9L222.6 155.9Q222.6 157.1 223.5 157.8Q224.4 158.4 225.8 158.4ZM235.5 144.9L243.4 144.9L243.4 146.8L235.5 146.8L235.5 144.9ZM237.8 156.4L237.8 141.2L240.1 141.2L240.1 155.8Q240.1 156.7 240.4 157.2Q240.7 157.7 241.2 157.9Q241.7 158.1 242.2 158.1L242.2 158.1Q242.6 158.1 242.8 158.0Q243.1 158.0 243.2 157.9L243.2 157.9L243.7 160.0Q243.4 160.1 243.0 160.2Q242.6 160.3 241.9 160.3L241.9 160.3Q240.9 160.3 240.0 159.9Q239.0 159.5 238.4 158.6Q237.8 157.7 237.8 156.4L237.8 156.4Z M262.1 143.0L256.0 160.1L253.4 160.1L260.9 139.8L263.4 139.8L270.9 160.1L268.3 160.1L262.2 143.0L262.1 143.0ZM256.9 154.4L256.9 152.2L267.3 152.2L267.3 154.4L256.9 154.4ZM284.6 148.3L284.6 148.3L282.5 148.9Q282.3 148.3 281.9 147.8Q281.5 147.3 280.8 147.0Q280.2 146.7 279.2 146.7L279.2 146.7Q277.8 146.7 276.8 147.3Q275.9 148.0 275.9 148.9L275.9 148.9Q275.9 149.8 276.5 150.3Q277.2 150.8 278.5 151.2L278.5 151.2L280.8 151.7Q282.8 152.2 283.8 153.2Q284.8 154.3 284.8 155.9L284.8 155.9Q284.8 157.2 284.1 158.2Q283.3 159.3 282.0 159.8Q280.7 160.4 278.9 160.4L278.9 160.4Q276.5 160.4 275.0 159.4Q273.5 158.4 273.1 156.5L273.1 156.5L275.3 155.9Q275.6 157.1 276.5 157.8Q277.4 158.4 278.8 158.4L278.8 158.4Q280.5 158.4 281.5 157.7Q282.4 157.0 282.4 156.0L282.4 156.0Q282.4 155.2 281.9 154.7Q281.3 154.1 280.2 153.8L280.2 153.8L277.6 153.2Q275.5 152.7 274.5 151.7Q273.6 150.6 273.6 149.1L273.6 149.1Q273.6 147.8 274.3 146.8Q275.0 145.8 276.3 145.2Q277.5 144.7 279.2 144.7L279.2 144.7Q281.4 144.7 282.7 145.6Q284.0 146.6 284.6 148.3ZM287.1 144.9L295.0 144.9L295.0 146.8L287.1 146.8L287.1 144.9ZM289.4 156.4L289.4 141.2L291.8 141.2L291.8 155.8Q291.8 156.7 292.1 157.2Q292.4 157.7 292.8 157.9Q293.3 158.1 293.8 158.1L293.8 158.1Q294.2 158.1 294.4 158.0Q294.7 158.0 294.8 157.9L294.8 157.9L295.3 160.0Q295.1 160.1 294.6 160.2Q294.2 160.3 293.6 160.3L293.6 160.3Q292.6 160.3 291.6 159.9Q290.7 159.5 290.0 158.6Q289.4 157.7 289.4 156.4L289.4 156.4ZM300.9 160.1L298.6 160.1L298.6 144.9L300.8 144.9L300.8 147.2L301.0 147.2Q301.4 146.0 302.5 145.3Q303.6 144.6 305.0 144.6L305.0 144.6Q305.2 144.6 305.6 144.6Q306.0 144.6 306.2 144.7L306.2 144.7L306.2 147.0Q306.1 147.0 305.7 146.9Q305.2 146.9 304.8 146.9L304.8 146.9Q303.7 146.9 302.8 147.3Q301.9 147.8 301.4 148.6Q300.9 149.4 300.9 150.5L300.9 150.5L300.9 160.1ZM314.7 160.4L314.7 160.4Q312.6 160.4 311.1 159.5Q309.5 158.5 308.7 156.7Q307.8 154.9 307.8 152.6L307.8 152.6Q307.8 150.2 308.7 148.4Q309.5 146.6 311.1 145.6Q312.6 144.7 314.7 144.7L314.7 144.7Q316.8 144.7 318.3 145.6Q319.9 146.6 320.8 148.4Q321.6 150.2 321.6 152.6L321.6 152.6Q321.6 154.9 320.8 156.7Q319.9 158.5 318.3 159.5Q316.8 160.4 314.7 160.4ZM314.7 158.3L314.7 158.3Q316.3 158.3 317.3 157.5Q318.3 156.7 318.8 155.4Q319.3 154.1 319.3 152.6L319.3 152.6Q319.3 151.0 318.8 149.7Q318.3 148.4 317.3 147.6Q316.3 146.8 314.7 146.8L314.7 146.8Q313.1 146.8 312.1 147.6Q311.1 148.4 310.6 149.7Q310.1 151.0 310.1 152.6L310.1 152.6Q310.1 154.1 310.6 155.4Q311.1 156.7 312.1 157.5Q313.1 158.3 314.7 158.3Z M345.8 160.1L333.9 160.1L333.9 139.8L336.4 139.8L336.4 157.9L345.8 157.9L345.8 160.1ZM355.5 160.4L355.5 160.4Q353.5 160.4 351.9 159.5Q350.3 158.5 349.5 156.7Q348.6 154.9 348.6 152.6L348.6 152.6Q348.6 150.2 349.5 148.4Q350.3 146.6 351.9 145.6Q353.5 144.7 355.5 144.7L355.5 144.7Q357.6 144.7 359.1 145.6Q360.7 146.6 361.6 148.4Q362.4 150.2 362.4 152.6L362.4 152.6Q362.4 154.9 361.6 156.7Q360.7 158.5 359.1 159.5Q357.6 160.4 355.5 160.4ZM355.5 158.3L355.5 158.3Q357.1 158.3 358.1 157.5Q359.1 156.7 359.6 155.4Q360.1 154.1 360.1 152.6L360.1 152.6Q360.1 151.0 359.6 149.7Q359.1 148.4 358.1 147.6Q357.1 146.8 355.5 146.8L355.5 146.8Q354.0 146.8 352.9 147.6Q351.9 148.4 351.4 149.7Q350.9 151.0 350.9 152.6L350.9 152.6Q350.9 154.1 351.4 155.4Q351.9 156.7 352.9 157.5Q354.0 158.3 355.5 158.3ZM375.6 153.9L375.6 153.9L375.6 144.9L378.0 144.9L378.0 160.1L375.6 160.1L375.6 157.5L375.5 157.5Q375.0 158.7 373.8 159.5Q372.7 160.3 371.0 160.3L371.0 160.3Q369.5 160.3 368.4 159.7Q367.3 159.1 366.7 157.8Q366.0 156.5 366.0 154.6L366.0 154.6L366.0 144.9L368.4 144.9L368.4 154.4Q368.4 156.1 369.3 157.1Q370.2 158.1 371.7 158.1L371.7 158.1Q372.6 158.1 373.5 157.6Q374.4 157.2 375.0 156.2Q375.6 155.3 375.6 153.9ZM384.6 150.9L384.6 150.9L384.6 160.1L382.3 160.1L382.3 144.9L384.6 144.9L384.6 147.2L384.8 147.2Q385.3 146.1 386.4 145.4Q387.5 144.7 389.2 144.7L389.2 144.7Q390.8 144.7 391.9 145.3Q393.1 145.9 393.7 147.2Q394.4 148.5 394.4 150.4L394.4 150.4L394.4 160.1L392.0 160.1L392.0 150.6Q392.0 148.8 391.1 147.8Q390.2 146.8 388.5 146.8L388.5 146.8Q387.4 146.8 386.5 147.2Q385.7 147.7 385.1 148.7Q384.6 149.6 384.6 150.9ZM404.8 166.2L404.8 166.2Q403.1 166.2 401.9 165.7Q400.7 165.3 399.9 164.6Q399.1 163.9 398.6 163.1L398.6 163.1L400.5 161.8Q400.8 162.2 401.3 162.8Q401.8 163.3 402.6 163.7Q403.5 164.1 404.8 164.1L404.8 164.1Q406.7 164.1 407.9 163.2Q409.1 162.3 409.1 160.4L409.1 160.4L409.1 157.3L408.9 157.3Q408.6 157.7 408.2 158.3Q407.7 158.9 406.8 159.4Q405.9 159.9 404.4 159.9L404.4 159.9Q402.6 159.9 401.1 159.0Q399.7 158.1 398.8 156.5Q398.0 154.8 398.0 152.4L398.0 152.4Q398.0 150.1 398.8 148.3Q399.6 146.6 401.1 145.6Q402.6 144.7 404.5 144.7L404.5 144.7Q406.0 144.7 406.9 145.1Q407.7 145.6 408.2 146.3Q408.7 146.9 408.9 147.3L408.9 147.3L409.2 147.3L409.2 144.9L411.4 144.9L411.4 160.6Q411.4 162.5 410.6 163.8Q409.7 165.0 408.2 165.6Q406.7 166.2 404.8 166.2ZM404.8 157.8L404.8 157.8Q406.2 157.8 407.1 157.1Q408.1 156.5 408.6 155.3Q409.1 154.1 409.1 152.4L409.1 152.4Q409.1 150.7 408.6 149.5Q408.1 148.2 407.2 147.5Q406.2 146.8 404.8 146.8L404.8 146.8Q403.3 146.8 402.3 147.5Q401.3 148.3 400.8 149.5Q400.3 150.8 400.3 152.4L400.3 152.4Q400.3 154.0 400.8 155.2Q401.3 156.4 402.3 157.1Q403.3 157.8 404.8 157.8ZM422.1 160.4L422.1 160.4Q419.9 160.4 418.3 159.5Q416.7 158.5 415.9 156.7Q415.0 155.0 415.0 152.6L415.0 152.6Q415.0 150.3 415.9 148.5Q416.7 146.7 418.3 145.7Q419.8 144.7 421.9 144.7L421.9 144.7Q423.1 144.7 424.3 145.1Q425.4 145.4 426.4 146.3Q427.3 147.2 427.9 148.7Q428.5 150.2 428.5 152.3L428.5 152.3L428.5 153.3L416.7 153.3L416.7 151.3L426.1 151.3Q426.1 150.0 425.6 148.9Q425.1 147.9 424.1 147.3Q423.2 146.8 421.9 146.8L421.9 146.8Q420.5 146.8 419.5 147.5Q418.5 148.1 417.9 149.2Q417.4 150.4 417.4 151.6L417.4 151.6L417.4 153.0Q417.4 154.7 418.0 155.9Q418.6 157.1 419.6 157.7Q420.7 158.3 422.1 158.3L422.1 158.3Q423.1 158.3 423.8 158.1Q424.6 157.8 425.1 157.3Q425.7 156.7 426.0 155.9L426.0 155.9L428.2 156.6Q427.9 157.7 427.0 158.6Q426.2 159.5 424.9 160.0Q423.7 160.4 422.1 160.4Z "/><mask id="satori_om-id-4"><rect x="20" y="184" width="760" height="14" fill="#fff"/></mask><path fill="hsl(8.5,82.4%,53.1%)" d="M23.3 198.5L20.9 198.5L20.9 187.6L25.3 187.6Q26.5 187.6 27.4 188.1Q28.2 188.6 28.7 189.4Q29.2 190.2 29.2 191.3L29.2 191.3Q29.2 192.4 28.7 193.2Q28.2 194.1 27.3 194.5Q26.5 195.0 25.2 195.0L25.2 195.0L22.5 195.0L22.5 193.1L24.8 193.1Q25.5 193.1 25.9 192.9Q26.4 192.7 26.6 192.3Q26.8 191.9 26.8 191.3L26.8 191.3Q26.8 190.8 26.6 190.4Q26.4 190.0 25.9 189.7Q25.5 189.5 24.8 189.5L24.8 189.5L23.3 189.5L23.3 198.5ZM35.0 190.1L32.3 198.5L29.8 198.5L33.6 187.6L36.5 187.6L40.3 198.5L37.8 198.5L35.1 190.1L35.0 190.1ZM32.1 196.0L32.1 194.2L38.0 194.2L38.0 196.0L32.1 196.0ZM50.5 190.8L48.3 190.8Q48.2 190.1 47.7 189.8Q47.2 189.4 46.4 189.4L46.4 189.4Q45.9 189.4 45.5 189.6Q45.1 189.7 44.9 190.0Q44.7 190.3 44.7 190.6L44.7 190.6Q44.7 190.9 44.8 191.1Q44.9 191.4 45.2 191.5Q45.4 191.7 45.7 191.8Q46.0 191.9 46.4 192.0L46.4 192.0L47.4 192.2Q48.1 192.4 48.7 192.6Q49.3 192.9 49.7 193.3Q50.2 193.7 50.4 194.2Q50.6 194.7 50.6 195.4L50.6 195.4Q50.6 196.4 50.1 197.1Q49.6 197.9 48.7 198.3Q47.7 198.7 46.4 198.7L46.4 198.7Q45.1 198.7 44.1 198.3Q43.1 197.9 42.6 197.1Q42.0 196.3 42.0 195.1L42.0 195.1L44.2 195.1Q44.3 195.7 44.6 196.0Q44.8 196.4 45.3 196.6Q45.8 196.8 46.4 196.8L46.4 196.8Q47.0 196.8 47.4 196.6Q47.8 196.4 48.1 196.1Q48.3 195.8 48.3 195.4L48.3 195.4Q48.3 195.0 48.1 194.8Q47.9 194.5 47.5 194.4Q47.1 194.2 46.5 194.0L46.5 194.0L45.3 193.7Q43.9 193.4 43.1 192.7Q42.3 192.0 42.3 190.8L42.3 190.8Q42.3 189.8 42.8 189.0Q43.4 188.3 44.3 187.9Q45.2 187.5 46.4 187.5L46.4 187.5Q47.6 187.5 48.6 187.9Q49.5 188.3 50.0 189.0Q50.5 189.8 50.5 190.8L50.5 190.8ZM56.1 189.5L52.8 189.5L52.8 187.6L61.7 187.6L61.7 189.5L58.4 189.5L58.4 198.5L56.1 198.5L56.1 189.5Z "/><mask id="satori_om-id-5"><rect x="20" y="208" width="760" height="26" fill="#fff"/></mask><path fill="#e2e8f0" d="M22.5 214.8L24.9 214.8L24.9 235.1L22.5 235.1L22.5 214.8ZM31.9 225.9L31.9 225.9L31.9 235.1L29.5 235.1L29.5 219.9L31.8 219.9L31.8 222.2L32.0 222.2Q32.5 221.1 33.6 220.4Q34.7 219.7 36.5 219.7L36.5 219.7Q38.0 219.7 39.2 220.3Q40.3 220.9 41.0 222.2Q41.6 223.5 41.6 225.4L41.6 225.4L41.6 235.1L39.3 235.1L39.3 225.6Q39.3 223.8 38.4 222.8Q37.4 221.8 35.8 221.8L35.8 221.8Q34.7 221.8 33.8 222.2Q32.9 222.7 32.4 223.7Q31.9 224.6 31.9 225.9ZM44.7 219.9L52.6 219.9L52.6 221.8L44.7 221.8L44.7 219.9ZM47.0 231.4L47.0 216.2L49.3 216.2L49.3 230.8Q49.3 231.7 49.6 232.2Q49.9 232.7 50.4 232.9Q50.8 233.1 51.3 233.1L51.3 233.1Q51.7 233.1 52.0 233.0Q52.2 233.0 52.4 232.9L52.4 232.9L52.9 235.0Q52.6 235.1 52.2 235.2Q51.8 235.3 51.1 235.3L51.1 235.3Q50.1 235.3 49.2 234.9Q48.2 234.5 47.6 233.6Q47.0 232.7 47.0 231.4L47.0 231.4ZM62.4 235.4L62.4 235.4Q60.2 235.4 58.6 234.5Q57.0 233.5 56.1 231.7Q55.2 230.0 55.2 227.6L55.2 227.6Q55.2 225.3 56.1 223.5Q57.0 221.7 58.5 220.7Q60.1 219.7 62.1 219.7L62.1 219.7Q63.3 219.7 64.5 220.1Q65.6 220.4 66.6 221.3Q67.5 222.2 68.1 223.7Q68.7 225.2 68.7 227.3L68.7 227.3L68.7 228.3L56.9 228.3L56.9 226.3L66.3 226.3Q66.3 225.0 65.8 223.9Q65.3 222.9 64.3 222.3Q63.4 221.8 62.1 221.8L62.1 221.8Q60.7 221.8 59.7 222.5Q58.7 223.1 58.1 224.2Q57.6 225.4 57.6 226.6L57.6 226.6L57.6 228.0Q57.6 229.7 58.2 230.9Q58.8 232.1 59.9 232.7Q60.9 233.3 62.4 233.3L62.4 233.3Q63.3 233.3 64.0 233.1Q64.8 232.8 65.3 232.3Q65.9 231.7 66.2 230.9L66.2 230.9L68.4 231.6Q68.1 232.7 67.2 233.6Q66.4 234.5 65.2 235.0Q63.9 235.4 62.4 235.4ZM74.6 235.1L72.3 235.1L72.3 219.9L74.5 219.9L74.5 222.2L74.7 222.2Q75.1 221.0 76.2 220.3Q77.3 219.6 78.7 219.6L78.7 219.6Q78.9 219.6 79.3 219.6Q79.7 219.6 79.9 219.7L79.9 219.7L79.9 222.0Q79.8 222.0 79.4 221.9Q78.9 221.9 78.5 221.9L78.5 221.9Q77.4 221.9 76.5 222.3Q75.6 222.8 75.1 223.6Q74.6 224.4 74.6 225.5L74.6 225.5L74.6 235.1ZM85.0 225.9L85.0 225.9L85.0 235.1L82.7 235.1L82.7 219.9L84.9 219.9L84.9 222.2L85.1 222.2Q85.7 221.1 86.8 220.4Q87.9 219.7 89.6 219.7L89.6 219.7Q91.2 219.7 92.3 220.3Q93.5 220.9 94.1 222.2Q94.8 223.5 94.8 225.4L94.8 225.4L94.8 235.1L92.4 235.1L92.4 225.6Q92.4 223.8 91.5 222.8Q90.6 221.8 88.9 221.8L88.9 221.8Q87.8 221.8 86.9 222.2Q86.0 222.7 85.5 223.7Q85.0 224.6 85.0 225.9Z M111.6 235.5L111.6 235.5Q110.1 235.5 109.0 234.9Q107.8 234.4 107.1 233.3Q106.4 232.3 106.4 230.8L106.4 230.8Q106.4 229.5 106.9 228.7Q107.4 227.8 108.3 227.4Q109.2 226.9 110.2 226.7Q111.2 226.4 112.3 226.3L112.3 226.3Q113.7 226.1 114.6 226.0Q115.4 225.9 115.8 225.7Q116.3 225.5 116.3 224.9L116.3 224.9L116.3 224.8Q116.3 223.4 115.4 222.5Q114.6 221.7 113.0 221.7L113.0 221.7Q111.3 221.7 110.4 222.5Q109.4 223.2 109.1 224.0L109.1 224.0L106.8 223.2Q107.4 221.8 108.4 221.1Q109.4 220.3 110.6 220.0Q111.8 219.7 112.9 219.7L112.9 219.7Q113.7 219.7 114.6 219.8Q115.6 220.0 116.5 220.5Q117.4 221.1 118 222.2Q118.6 223.2 118.6 225.1L118.6 225.1L118.6 235.1L116.3 235.1L116.3 233.1L116.1 233.1Q115.9 233.6 115.3 234.1Q114.8 234.7 113.9 235.1Q112.9 235.5 111.6 235.5ZM112.0 233.4L112.0 233.4Q113.3 233.4 114.3 232.8Q115.3 232.3 115.8 231.4Q116.3 230.6 116.3 229.6L116.3 229.6L116.3 227.4Q116.1 227.6 115.6 227.8Q115.1 227.9 114.4 228.0Q113.8 228.1 113.2 228.2Q112.6 228.3 112.2 228.3L112.2 228.3Q111.3 228.4 110.5 228.7Q109.7 229.0 109.2 229.5Q108.7 230.0 108.7 230.9L108.7 230.9Q108.7 232.1 109.6 232.8Q110.6 233.4 112.0 233.4ZM121.6 219.9L129.5 219.9L129.5 221.8L121.6 221.8L121.6 219.9ZM123.9 231.4L123.9 216.2L126.3 216.2L126.3 230.8Q126.3 231.7 126.6 232.2Q126.9 232.7 127.3 232.9Q127.8 233.1 128.3 233.1L128.3 233.1Q128.7 233.1 128.9 233.0Q129.2 233.0 129.3 232.9L129.3 232.9L129.8 235.0Q129.6 235.1 129.1 235.2Q128.7 235.3 128.1 235.3L128.1 235.3Q127.1 235.3 126.1 234.9Q125.2 234.5 124.5 233.6Q123.9 232.7 123.9 231.4L123.9 231.4Z M141.3 214.8L143.7 214.8L143.7 235.1L141.3 235.1L141.3 214.8ZM150.7 225.9L150.7 225.9L150.7 235.1L148.3 235.1L148.3 219.9L150.6 219.9L150.6 222.2L150.8 222.2Q151.3 221.1 152.4 220.4Q153.5 219.7 155.3 219.7L155.3 219.7Q156.8 219.7 158.0 220.3Q159.1 220.9 159.8 222.2Q160.4 223.5 160.4 225.4L160.4 225.4L160.4 235.1L158.1 235.1L158.1 225.6Q158.1 223.8 157.2 222.8Q156.2 221.8 154.6 221.8L154.6 221.8Q153.5 221.8 152.6 222.2Q151.7 222.7 151.2 223.7Q150.7 224.6 150.7 225.9ZM163.3 219.9L171.5 219.9L171.5 221.8L163.3 221.8L163.3 219.9ZM168.1 235.1L165.8 235.1L165.8 217.7Q165.8 216.4 166.4 215.6Q167 214.7 168.0 214.2Q169.0 213.8 170.1 213.8L170.1 213.8Q170.9 213.8 171.5 213.9Q172.0 214.1 172.3 214.2L172.3 214.2L171.6 216.2Q171.4 216.2 171.1 216.1Q170.8 216.0 170.3 216.0L170.3 216.0Q169.1 216.0 168.6 216.6Q168.1 217.2 168.1 218.3L168.1 218.3L168.1 235.1ZM177.2 235.1L174.8 235.1L174.8 219.9L177.2 219.9L177.2 235.1ZM176.0 217.3L176.0 217.3Q175.3 217.3 174.9 216.8Q174.4 216.4 174.4 215.7L174.4 215.7Q174.4 215.1 174.9 214.6Q175.3 214.1 176.0 214.1L176.0 214.1Q176.7 214.1 177.2 214.6Q177.7 215.1 177.7 215.7L177.7 215.7Q177.7 216.4 177.2 216.8Q176.7 217.3 176.0 217.3ZM183.8 225.9L183.8 225.9L183.8 235.1L181.5 235.1L181.5 219.9L183.7 219.9L183.7 222.2L183.9 222.2Q184.5 221.1 185.6 220.4Q186.7 219.7 188.4 219.7L188.4 219.7Q189.9 219.7 191.1 220.3Q192.3 220.9 192.9 222.2Q193.6 223.5 193.6 225.4L193.6 225.4L193.6 235.1L191.2 235.1L191.2 225.6Q191.2 223.8 190.3 222.8Q189.4 221.8 187.7 221.8L187.7 221.8Q186.6 221.8 185.7 222.2Q184.8 222.7 184.3 223.7Q183.8 224.6 183.8 225.9ZM204.3 235.4L204.3 235.4Q202.1 235.4 200.5 234.5Q198.9 233.5 198.0 231.7Q197.1 230.0 197.1 227.6L197.1 227.6Q197.1 225.3 198.0 223.5Q198.9 221.7 200.4 220.7Q202.0 219.7 204.0 219.7L204.0 219.7Q205.2 219.7 206.4 220.1Q207.5 220.4 208.5 221.3Q209.5 222.2 210.0 223.7Q210.6 225.2 210.6 227.3L210.6 227.3L210.6 228.3L198.8 228.3L198.8 226.3L208.2 226.3Q208.2 225.0 207.7 223.9Q207.2 222.9 206.2 222.3Q205.3 221.8 204.0 221.8L204.0 221.8Q202.6 221.8 201.6 222.5Q200.6 223.1 200.0 224.2Q199.5 225.4 199.5 226.6L199.5 226.6L199.5 228.0Q199.5 229.7 200.1 230.9Q200.7 232.1 201.8 232.7Q202.8 233.3 204.3 233.3L204.3 233.3Q205.2 233.3 205.9 233.1Q206.7 232.8 207.2 232.3Q207.8 231.7 208.1 230.9L208.1 230.9L210.4 231.6Q210.0 232.7 209.1 233.6Q208.3 234.5 207.1 235.0Q205.8 235.4 204.3 235.4ZM220.4 235.4L220.4 235.4Q218.3 235.4 216.8 234.5Q215.2 233.5 214.3 231.7Q213.5 229.9 213.5 227.6L213.5 227.6Q213.5 225.2 214.3 223.4Q215.2 221.6 216.8 220.6Q218.3 219.7 220.4 219.7L220.4 219.7Q222.4 219.7 224.0 220.6Q225.6 221.6 226.4 223.4Q227.3 225.2 227.3 227.6L227.3 227.6Q227.3 229.9 226.4 231.7Q225.6 233.5 224.0 234.5Q222.4 235.4 220.4 235.4ZM220.4 233.3L220.4 233.3Q221.9 233.3 223.0 232.5Q224.0 231.7 224.5 230.4Q224.9 229.1 224.9 227.6L224.9 227.6Q224.9 226.0 224.5 224.7Q224.0 223.4 223.0 222.6Q221.9 221.8 220.4 221.8L220.4 221.8Q218.8 221.8 217.8 222.6Q216.8 223.4 216.3 224.7Q215.8 226.0 215.8 227.6L215.8 227.6Q215.8 229.1 216.3 230.4Q216.8 231.7 217.8 232.5Q218.8 233.3 220.4 233.3ZM233.2 225.9L233.2 225.9L233.2 235.1L230.9 235.1L230.9 219.9L233.1 219.9L233.1 222.2L233.3 222.2Q233.9 221.1 235.0 220.4Q236.1 219.7 237.8 219.7L237.8 219.7Q239.3 219.7 240.5 220.3Q241.7 220.9 242.3 222.2Q243.0 223.5 243.0 225.4L243.0 225.4L243.0 235.1L240.6 235.1L240.6 225.6Q240.6 223.8 239.7 222.8Q238.8 221.8 237.1 221.8L237.1 221.8Q236.0 221.8 235.1 222.2Q234.2 222.7 233.7 223.7Q233.2 224.6 233.2 225.9Z M260.7 216.9L254.3 216.9L254.3 214.8L269.6 214.8L269.6 216.9L263.2 216.9L263.2 235.1L260.7 235.1L260.7 216.9ZM277.3 235.4L277.3 235.4Q275.1 235.4 273.5 234.5Q271.9 233.5 271.0 231.7Q270.2 230.0 270.2 227.6L270.2 227.6Q270.2 225.3 271.0 223.5Q271.9 221.7 273.4 220.7Q275.0 219.7 277.1 219.7L277.1 219.7Q278.2 219.7 279.4 220.1Q280.6 220.4 281.5 221.3Q282.5 222.2 283.0 223.7Q283.6 225.2 283.6 227.3L283.6 227.3L283.6 228.3L271.8 228.3L271.8 226.3L281.2 226.3Q281.2 225.0 280.7 223.9Q280.2 222.9 279.3 222.3Q278.3 221.8 277.1 221.8L277.1 221.8Q275.6 221.8 274.6 222.5Q273.6 223.1 273.1 224.2Q272.5 225.4 272.5 226.6L272.5 226.6L272.5 228.0Q272.5 229.7 273.1 230.9Q273.7 232.1 274.8 232.7Q275.9 233.3 277.3 233.3L277.3 233.3Q278.2 233.3 279.0 233.1Q279.7 232.8 280.3 232.3Q280.8 231.7 281.1 230.9L281.1 230.9L283.4 231.6Q283.0 232.7 282.2 233.6Q281.3 234.5 280.1 235.0Q278.8 235.4 277.3 235.4ZM293.4 235.4L293.4 235.4Q291.3 235.4 289.7 234.4Q288.1 233.4 287.3 231.6Q286.5 229.9 286.5 227.6L286.5 227.6Q286.5 225.2 287.3 223.5Q288.2 221.7 289.7 220.7Q291.3 219.7 293.4 219.7L293.4 219.7Q295.0 219.7 296.3 220.3Q297.6 220.8 298.4 221.9Q299.2 223.0 299.4 224.4L299.4 224.4L297.1 224.4Q296.8 223.4 295.9 222.6Q294.9 221.8 293.4 221.8L293.4 221.8Q292.0 221.8 291.0 222.5Q290.0 223.2 289.4 224.5Q288.8 225.8 288.8 227.5L288.8 227.5Q288.8 229.3 289.4 230.6Q289.9 231.9 291.0 232.6Q292.0 233.3 293.4 233.3L293.4 233.3Q294.3 233.3 295.1 233.0Q295.8 232.7 296.3 232.1Q296.8 231.5 297.1 230.7L297.1 230.7L299.4 230.7Q299.2 232.0 298.4 233.1Q297.6 234.2 296.4 234.8Q295.1 235.4 293.4 235.4ZM305.2 225.9L305.2 225.9L305.2 235.1L302.8 235.1L302.8 214.8L305.2 214.8L305.2 222.2L305.4 222.2Q305.9 221.1 307.0 220.4Q308.1 219.7 309.9 219.7L309.9 219.7Q311.4 219.7 312.6 220.3Q313.8 220.9 314.4 222.2Q315.1 223.5 315.1 225.4L315.1 225.4L315.1 235.1L312.7 235.1L312.7 225.6Q312.7 223.8 311.8 222.8Q310.8 221.8 309.2 221.8L309.2 221.8Q308.0 221.8 307.1 222.2Q306.2 222.7 305.7 223.7Q305.2 224.6 305.2 225.9ZM321.7 225.9L321.7 225.9L321.7 235.1L319.4 235.1L319.4 219.9L321.6 219.9L321.6 222.2L321.8 222.2Q322.4 221.1 323.5 220.4Q324.6 219.7 326.3 219.7L326.3 219.7Q327.8 219.7 329.0 220.3Q330.2 220.9 330.8 222.2Q331.5 223.5 331.5 225.4L331.5 225.4L331.5 235.1L329.1 235.1L329.1 225.6Q329.1 223.8 328.2 222.8Q327.2 221.8 325.6 221.8L325.6 221.8Q324.5 221.8 323.6 222.2Q322.7 222.7 322.2 223.7Q321.7 224.6 321.7 225.9ZM342.0 235.4L342.0 235.4Q339.9 235.4 338.3 234.5Q336.8 233.5 335.9 231.7Q335.0 229.9 335.0 227.6L335.0 227.6Q335.0 225.2 335.9 223.4Q336.8 221.6 338.3 220.6Q339.9 219.7 342.0 219.7L342.0 219.7Q344.0 219.7 345.6 220.6Q347.1 221.6 348.0 223.4Q348.9 225.2 348.9 227.6L348.9 227.6Q348.9 229.9 348.0 231.7Q347.1 233.5 345.6 234.5Q344.0 235.4 342.0 235.4ZM342.0 233.3L342.0 233.3Q343.5 233.3 344.5 232.5Q345.6 231.7 346.0 230.4Q346.5 229.1 346.5 227.6L346.5 227.6Q346.5 226.0 346.0 224.7Q345.6 223.4 344.5 222.6Q343.5 221.8 342.0 221.8L342.0 221.8Q340.4 221.8 339.4 222.6Q338.4 223.4 337.9 224.7Q337.4 226.0 337.4 227.6L337.4 227.6Q337.4 229.1 337.9 230.4Q338.4 231.7 339.4 232.5Q340.4 233.3 342.0 233.3ZM352.5 214.8L354.8 214.8L354.8 235.1L352.5 235.1L352.5 214.8ZM365.3 235.4L365.3 235.4Q363.2 235.4 361.7 234.5Q360.1 233.5 359.3 231.7Q358.4 229.9 358.4 227.6L358.4 227.6Q358.4 225.2 359.3 223.4Q360.1 221.6 361.7 220.6Q363.2 219.7 365.3 219.7L365.3 219.7Q367.4 219.7 368.9 220.6Q370.5 221.6 371.4 223.4Q372.2 225.2 372.2 227.6L372.2 227.6Q372.2 229.9 371.4 231.7Q370.5 233.5 368.9 234.5Q367.4 235.4 365.3 235.4ZM365.3 233.3L365.3 233.3Q366.9 233.3 367.9 232.5Q368.9 231.7 369.4 230.4Q369.9 229.1 369.9 227.6L369.9 227.6Q369.9 226.0 369.4 224.7Q368.9 223.4 367.9 222.6Q366.9 221.8 365.3 221.8L365.3 221.8Q363.7 221.8 362.7 222.6Q361.7 223.4 361.2 224.7Q360.7 226.0 360.7 227.6L360.7 227.6Q360.7 229.1 361.2 230.4Q361.7 231.7 362.7 232.5Q363.7 233.3 365.3 233.3ZM382.0 241.2L382.0 241.2Q380.3 241.2 379.0 240.7Q377.8 240.3 377.0 239.6Q376.2 238.9 375.7 238.1L375.7 238.1L377.6 236.8Q377.9 237.2 378.4 237.8Q378.9 238.3 379.7 238.7Q380.6 239.1 382.0 239.1L382.0 239.1Q383.8 239.1 385.0 238.2Q386.2 237.3 386.2 235.4L386.2 235.4L386.2 232.3L386.0 232.3Q385.8 232.7 385.3 233.3Q384.8 233.9 383.9 234.4Q383.1 234.9 381.6 234.9L381.6 234.9Q379.7 234.9 378.3 234.0Q376.8 233.1 375.9 231.5Q375.1 229.8 375.1 227.4L375.1 227.4Q375.1 225.1 375.9 223.3Q376.7 221.6 378.2 220.6Q379.7 219.7 381.6 219.7L381.6 219.7Q383.1 219.7 384.0 220.1Q384.9 220.6 385.3 221.3Q385.8 221.9 386.1 222.3L386.1 222.3L386.3 222.3L386.3 219.9L388.6 219.9L388.6 235.6Q388.6 237.5 387.7 238.8Q386.8 240.0 385.3 240.6Q383.8 241.2 382.0 241.2ZM381.9 232.8L381.9 232.8Q383.3 232.8 384.3 232.1Q385.3 231.5 385.8 230.3Q386.3 229.1 386.3 227.4L386.3 227.4Q386.3 225.7 385.8 224.5Q385.3 223.2 384.3 222.5Q383.3 221.8 381.9 221.8L381.9 221.8Q380.4 221.8 379.4 222.5Q378.4 223.3 377.9 224.5Q377.4 225.8 377.4 227.4L377.4 227.4Q377.4 229.0 377.9 230.2Q378.4 231.4 379.4 232.1Q380.4 232.8 381.9 232.8ZM395.2 235.1L392.9 235.1L392.9 219.9L395.2 219.9L395.2 235.1ZM394.1 217.3L394.1 217.3Q393.4 217.3 392.9 216.8Q392.4 216.4 392.4 215.7L392.4 215.7Q392.4 215.1 392.9 214.6Q393.4 214.1 394.1 214.1L394.1 214.1Q394.7 214.1 395.2 214.6Q395.7 215.1 395.7 215.7L395.7 215.7Q395.7 216.4 395.2 216.8Q394.7 217.3 394.1 217.3ZM405.9 235.4L405.9 235.4Q403.7 235.4 402.1 234.5Q400.5 233.5 399.7 231.7Q398.8 230.0 398.8 227.6L398.8 227.6Q398.8 225.3 399.7 223.5Q400.5 221.7 402.1 220.7Q403.6 219.7 405.7 219.7L405.7 219.7Q406.9 219.7 408.0 220.1Q409.2 220.4 410.2 221.3Q411.1 222.2 411.7 223.7Q412.2 225.2 412.2 227.3L412.2 227.3L412.2 228.3L400.5 228.3L400.5 226.3L409.9 226.3Q409.9 225.0 409.3 223.9Q408.8 222.9 407.9 222.3Q406.9 221.8 405.7 221.8L405.7 221.8Q404.3 221.8 403.3 222.5Q402.2 223.1 401.7 224.2Q401.1 225.4 401.1 226.6L401.1 226.6L401.1 228.0Q401.1 229.7 401.7 230.9Q402.3 232.1 403.4 232.7Q404.5 233.3 405.9 233.3L405.9 233.3Q406.8 233.3 407.6 233.1Q408.3 232.8 408.9 232.3Q409.4 231.7 409.7 230.9L409.7 230.9L412.0 231.6Q411.6 232.7 410.8 233.6Q410.0 234.5 408.7 235.0Q407.5 235.4 405.9 235.4ZM426.6 223.3L426.6 223.3L424.5 223.9Q424.3 223.3 423.9 222.8Q423.6 222.3 422.9 222.0Q422.3 221.7 421.2 221.7L421.2 221.7Q419.8 221.7 418.9 222.3Q418.0 223.0 418.0 223.9L418.0 223.9Q418.0 224.8 418.6 225.3Q419.2 225.8 420.6 226.2L420.6 226.2L422.9 226.7Q424.9 227.2 425.9 228.2Q426.9 229.3 426.9 230.9L426.9 230.9Q426.9 232.2 426.2 233.2Q425.4 234.3 424.1 234.8Q422.7 235.4 420.9 235.4L420.9 235.4Q418.6 235.4 417.1 234.4Q415.5 233.4 415.1 231.5L415.1 231.5L417.4 230.9Q417.7 232.1 418.6 232.8Q419.5 233.4 420.9 233.4L420.9 233.4Q422.5 233.4 423.5 232.7Q424.5 232.0 424.5 231.0L424.5 231.0Q424.5 230.2 423.9 229.7Q423.4 229.1 422.2 228.8L422.2 228.8L419.7 228.2Q417.6 227.7 416.6 226.7Q415.6 225.6 415.6 224.1L415.6 224.1Q415.6 222.8 416.4 221.8Q417.1 220.8 418.3 220.2Q419.6 219.7 421.2 219.7L421.2 219.7Q423.5 219.7 424.8 220.6Q426.1 221.6 426.6 223.3Z "/><mask id="satori_om-id-6"><rect x="20" y="259" width="760" height="13" fill="#fff"/></mask><path fill="hsl(8.5,82.4%,53.1%)" d="M23.3 273.5L20.9 273.5L20.9 262.6L25.3 262.6Q26.5 262.6 27.4 263.1Q28.2 263.6 28.7 264.4Q29.2 265.2 29.2 266.3L29.2 266.3Q29.2 267.4 28.7 268.2Q28.2 269.1 27.3 269.5Q26.5 270.0 25.2 270.0L25.2 270.0L22.5 270.0L22.5 268.1L24.8 268.1Q25.5 268.1 25.9 267.9Q26.4 267.7 26.6 267.3Q26.8 266.9 26.8 266.3L26.8 266.3Q26.8 265.8 26.6 265.4Q26.4 265.0 25.9 264.7Q25.5 264.5 24.8 264.5L24.8 264.5L23.3 264.5L23.3 273.5ZM34.0 273.5L31.7 273.5L31.7 262.6L36.0 262.6Q37.2 262.6 38.1 263.1Q39.0 263.5 39.4 264.3Q39.9 265.1 39.9 266.2L39.9 266.2Q39.9 267.3 39.4 268.1Q38.9 268.8 38.1 269.2Q37.2 269.7 35.9 269.7L35.9 269.7L33.0 269.7L33.0 267.8L35.5 267.8Q36.2 267.8 36.6 267.6Q37.1 267.4 37.3 267.1Q37.5 266.7 37.5 266.2L37.5 266.2Q37.5 265.6 37.3 265.3Q37.1 264.9 36.6 264.7Q36.2 264.5 35.5 264.5L35.5 264.5L34.0 264.5L34.0 273.5ZM35.1 268.6L37.6 268.6L40.3 273.5L37.7 273.5L35.1 268.6ZM49.9 273.5L42.5 273.5L42.5 262.6L49.9 262.6L49.9 264.5L44.8 264.5L44.8 267.1L49.5 267.1L49.5 269.0L44.8 269.0L44.8 271.6L49.9 271.6L49.9 273.5ZM60.8 265.8L58.6 265.8Q58.6 265.1 58.1 264.8Q57.6 264.4 56.8 264.4L56.8 264.4Q56.2 264.4 55.8 264.6Q55.4 264.7 55.2 265.0Q55.0 265.3 55.0 265.6L55.0 265.6Q55.0 265.9 55.1 266.1Q55.3 266.4 55.5 266.5Q55.7 266.7 56.1 266.8Q56.4 266.9 56.7 267.0L56.7 267.0L57.7 267.2Q58.4 267.4 59.0 267.6Q59.6 267.9 60.0 268.3Q60.5 268.7 60.7 269.2Q61.0 269.7 61.0 270.4L61.0 270.4Q61.0 271.4 60.5 272.1Q60.0 272.9 59.0 273.3Q58.1 273.7 56.7 273.7L56.7 273.7Q55.4 273.7 54.4 273.3Q53.5 272.9 52.9 272.1Q52.4 271.3 52.3 270.1L52.3 270.1L54.6 270.1Q54.6 270.7 54.9 271.0Q55.2 271.4 55.6 271.6Q56.1 271.8 56.7 271.8L56.7 271.8Q57.3 271.8 57.7 271.6Q58.2 271.4 58.4 271.1Q58.6 270.8 58.6 270.4L58.6 270.4Q58.6 270.0 58.4 269.8Q58.2 269.5 57.8 269.4Q57.4 269.2 56.8 269.0L56.8 269.0L55.6 268.7Q54.2 268.4 53.4 267.7Q52.6 267.0 52.6 265.8L52.6 265.8Q52.6 264.8 53.2 264.0Q53.7 263.3 54.6 262.9Q55.6 262.5 56.8 262.5L56.8 262.5Q58.0 262.5 58.9 262.9Q59.8 263.3 60.3 264.0Q60.8 264.8 60.8 265.8L60.8 265.8ZM70.9 273.5L63.5 273.5L63.5 262.6L70.9 262.6L70.9 264.5L65.8 264.5L65.8 267.1L70.5 267.1L70.5 269.0L65.8 269.0L65.8 271.6L70.9 271.6L70.9 273.5ZM80.5 262.6L82.8 262.6L82.8 273.5L80.8 273.5L76.1 266.7L76.0 266.7L76.0 273.5L73.7 273.5L73.7 262.6L75.7 262.6L80.4 269.5L80.5 269.5L80.5 262.6ZM88.7 264.5L85.3 264.5L85.3 262.6L94.3 262.6L94.3 264.5L90.9 264.5L90.9 273.5L88.7 273.5L88.7 264.5Z "/><mask id="satori_om-id-7"><rect x="20" y="282" width="760" height="26" fill="#fff"/></mask><path fill="#e2e8f0" d="M22.5 309.1L22.5 288.8L25.4 288.8L32.3 305.7L32.6 305.7L39.5 288.8L42.4 288.8L42.4 309.1L40.1 309.1L40.1 293.7L39.9 293.7L33.6 309.1L31.3 309.1L25.0 293.7L24.8 293.7L24.8 309.1L22.5 309.1ZM51.5 309.5L51.5 309.5Q50.1 309.5 48.9 308.9Q47.7 308.4 47.0 307.3Q46.3 306.3 46.3 304.8L46.3 304.8Q46.3 303.5 46.8 302.7Q47.4 301.8 48.2 301.4Q49.1 300.9 50.1 300.7Q51.2 300.4 52.3 300.3L52.3 300.3Q53.6 300.1 54.5 300.0Q55.4 299.9 55.8 299.7Q56.2 299.5 56.2 298.9L56.2 298.9L56.2 298.8Q56.2 297.4 55.4 296.5Q54.6 295.7 53.0 295.7L53.0 295.7Q51.3 295.7 50.3 296.5Q49.4 297.2 49.0 298.0L49.0 298.0L46.8 297.2Q47.4 295.8 48.4 295.1Q49.4 294.3 50.6 294.0Q51.7 293.7 52.9 293.7L52.9 293.7Q53.6 293.7 54.6 293.8Q55.5 294.0 56.4 294.5Q57.3 295.1 57.9 296.2Q58.5 297.2 58.5 299.1L58.5 299.1L58.5 309.1L56.2 309.1L56.2 307.1L56.1 307.1Q55.8 307.6 55.3 308.1Q54.7 308.7 53.8 309.1Q52.9 309.5 51.5 309.5ZM51.9 307.4L51.9 307.4Q53.3 307.4 54.2 306.8Q55.2 306.3 55.7 305.4Q56.2 304.6 56.2 303.6L56.2 303.6L56.2 301.4Q56.0 301.6 55.5 301.8Q55.0 301.9 54.4 302.0Q53.7 302.1 53.1 302.2Q52.5 302.3 52.1 302.3L52.1 302.3Q51.2 302.4 50.4 302.7Q49.6 303.0 49.2 303.5Q48.7 304.0 48.7 304.9L48.7 304.9Q48.7 306.1 49.6 306.8Q50.5 307.4 51.9 307.4ZM65.2 309.1L62.8 309.1L62.8 293.9L65.2 293.9L65.2 309.1ZM64.0 291.3L64.0 291.3Q63.3 291.3 62.9 290.8Q62.4 290.4 62.4 289.7L62.4 289.7Q62.4 289.1 62.9 288.6Q63.3 288.1 64.0 288.1L64.0 288.1Q64.7 288.1 65.2 288.6Q65.7 289.1 65.7 289.7L65.7 289.7Q65.7 290.4 65.2 290.8Q64.7 291.3 64.0 291.3ZM71.8 299.9L71.8 299.9L71.8 309.1L69.5 309.1L69.5 293.9L71.7 293.9L71.7 296.2L71.9 296.2Q72.5 295.1 73.6 294.4Q74.7 293.7 76.4 293.7L76.4 293.7Q77.9 293.7 79.1 294.3Q80.3 294.9 80.9 296.2Q81.6 297.5 81.6 299.4L81.6 299.4L81.6 309.1L79.2 309.1L79.2 299.6Q79.2 297.8 78.3 296.8Q77.4 295.8 75.7 295.8L75.7 295.8Q74.6 295.8 73.7 296.2Q72.8 296.7 72.3 297.7Q71.8 298.6 71.8 299.9ZM84.6 293.9L92.5 293.9L92.5 295.8L84.6 295.8L84.6 293.9ZM86.9 305.4L86.9 290.2L89.2 290.2L89.2 304.8Q89.2 305.7 89.5 306.2Q89.8 306.7 90.3 306.9Q90.8 307.1 91.3 307.1L91.3 307.1Q91.7 307.1 91.9 307.0Q92.2 307.0 92.3 306.9L92.3 306.9L92.8 309.0Q92.5 309.1 92.1 309.2Q91.7 309.3 91.0 309.3L91.0 309.3Q90.0 309.3 89.1 308.9Q88.1 308.5 87.5 307.6Q86.9 306.7 86.9 305.4L86.9 305.4ZM100.5 309.5L100.5 309.5Q99.1 309.5 97.9 308.9Q96.7 308.4 96.0 307.3Q95.3 306.3 95.3 304.8L95.3 304.8Q95.3 303.5 95.8 302.7Q96.4 301.8 97.2 301.4Q98.1 300.9 99.1 300.7Q100.2 300.4 101.3 300.3L101.3 300.3Q102.6 300.1 103.5 300.0Q104.4 299.9 104.8 299.7Q105.2 299.5 105.2 298.9L105.2 298.9L105.2 298.8Q105.2 297.4 104.4 296.5Q103.6 295.7 102.0 295.7L102.0 295.7Q100.3 295.7 99.3 296.5Q98.4 297.2 98.0 298.0L98.0 298.0L95.8 297.2Q96.4 295.8 97.4 295.1Q98.4 294.3 99.6 294.0Q100.7 293.7 101.9 293.7L101.9 293.7Q102.6 293.7 103.6 293.8Q104.5 294.0 105.4 294.5Q106.3 295.1 106.9 296.2Q107.5 297.2 107.5 299.1L107.5 299.1L107.5 309.1L105.2 309.1L105.2 307.1L105.1 307.1Q104.8 307.6 104.3 308.1Q103.7 308.7 102.8 309.1Q101.9 309.5 100.5 309.5ZM100.9 307.4L100.9 307.4Q102.3 307.4 103.2 306.8Q104.2 306.3 104.7 305.4Q105.2 304.6 105.2 303.6L105.2 303.6L105.2 301.4Q105.0 301.6 104.5 301.8Q104.0 301.9 103.4 302.0Q102.7 302.1 102.1 302.2Q101.5 302.3 101.1 302.3L101.1 302.3Q100.2 302.4 99.4 302.7Q98.6 303.0 98.2 303.5Q97.7 304.0 97.7 304.9L97.7 304.9Q97.7 306.1 98.6 306.8Q99.5 307.4 100.9 307.4ZM114.2 309.1L111.8 309.1L111.8 293.9L114.2 293.9L114.2 309.1ZM113.0 291.3L113.0 291.3Q112.3 291.3 111.9 290.8Q111.4 290.4 111.4 289.7L111.4 289.7Q111.4 289.1 111.9 288.6Q112.3 288.1 113.0 288.1L113.0 288.1Q113.7 288.1 114.2 288.6Q114.7 289.1 114.7 289.7L114.7 289.7Q114.7 290.4 114.2 290.8Q113.7 291.3 113.0 291.3ZM120.8 299.9L120.8 299.9L120.8 309.1L118.5 309.1L118.5 293.9L120.7 293.9L120.7 296.2L120.9 296.2Q121.5 295.1 122.6 294.4Q123.7 293.7 125.4 293.7L125.4 293.7Q126.9 293.7 128.1 294.3Q129.3 294.9 129.9 296.2Q130.6 297.5 130.6 299.4L130.6 299.4L130.6 309.1L128.2 309.1L128.2 299.6Q128.2 297.8 127.3 296.8Q126.4 295.8 124.7 295.8L124.7 295.8Q123.6 295.8 122.7 296.2Q121.8 296.7 121.3 297.7Q120.8 298.6 120.8 299.9ZM141.3 309.4L141.3 309.4Q139.1 309.4 137.5 308.5Q135.9 307.5 135.0 305.7Q134.1 304.0 134.1 301.6L134.1 301.6Q134.1 299.3 135.0 297.5Q135.9 295.7 137.4 294.7Q139.0 293.7 141.0 293.7L141.0 293.7Q142.2 293.7 143.4 294.1Q144.5 294.4 145.5 295.3Q146.5 296.2 147.0 297.7Q147.6 299.2 147.6 301.3L147.6 301.3L147.6 302.3L135.8 302.3L135.8 300.3L145.2 300.3Q145.2 299.0 144.7 297.9Q144.2 296.9 143.2 296.3Q142.3 295.8 141.0 295.8L141.0 295.8Q139.6 295.8 138.6 296.5Q137.6 297.1 137.0 298.2Q136.5 299.4 136.5 300.6L136.5 300.6L136.5 302.0Q136.5 303.7 137.1 304.9Q137.7 306.1 138.8 306.7Q139.8 307.3 141.3 307.3L141.3 307.3Q142.2 307.3 142.9 307.1Q143.7 306.8 144.2 306.3Q144.8 305.7 145.1 304.9L145.1 304.9L147.4 305.6Q147.0 306.7 146.1 307.6Q145.3 308.5 144.1 309.0Q142.8 309.4 141.3 309.4ZM153.5 309.1L151.2 309.1L151.2 293.9L153.4 293.9L153.4 296.2L153.6 296.2Q154.0 295.0 155.1 294.3Q156.2 293.6 157.6 293.6L157.6 293.6Q157.8 293.6 158.2 293.6Q158.6 293.6 158.8 293.7L158.8 293.7L158.8 296.0Q158.7 296.0 158.3 295.9Q157.8 295.9 157.4 295.9L157.4 295.9Q156.3 295.9 155.4 296.3Q154.5 296.8 154.0 297.6Q153.5 298.4 153.5 299.5L153.5 299.5L153.5 309.1Z M174.0 309.5L174.0 309.5Q172.5 309.5 171.3 308.9Q170.1 308.4 169.4 307.3Q168.8 306.3 168.8 304.8L168.8 304.8Q168.8 303.5 169.3 302.7Q169.8 301.8 170.6 301.4Q171.5 300.9 172.6 300.7Q173.6 300.4 174.7 300.3L174.7 300.3Q176.1 300.1 176.9 300.0Q177.8 299.9 178.2 299.7Q178.6 299.5 178.6 298.9L178.6 298.9L178.6 298.8Q178.6 297.4 177.8 296.5Q177.0 295.7 175.4 295.7L175.4 295.7Q173.7 295.7 172.8 296.5Q171.8 297.2 171.4 298.0L171.4 298.0L169.2 297.2Q169.8 295.8 170.8 295.1Q171.8 294.3 173.0 294.0Q174.2 293.7 175.3 293.7L175.3 293.7Q176.0 293.7 177.0 293.8Q178.0 294.0 178.9 294.5Q179.8 295.1 180.4 296.2Q181.0 297.2 181.0 299.1L181.0 299.1L181.0 309.1L178.6 309.1L178.6 307.1L178.5 307.1Q178.3 307.6 177.7 308.1Q177.1 308.7 176.2 309.1Q175.3 309.5 174.0 309.5ZM174.3 307.4L174.3 307.4Q175.7 307.4 176.7 306.8Q177.6 306.3 178.1 305.4Q178.6 304.6 178.6 303.6L178.6 303.6L178.6 301.4Q178.5 301.6 178.0 301.8Q177.5 301.9 176.8 302.0Q176.2 302.1 175.5 302.2Q174.9 302.3 174.6 302.3L174.6 302.3Q173.6 302.4 172.9 302.7Q172.1 303.0 171.6 303.5Q171.1 304.0 171.1 304.9L171.1 304.9Q171.1 306.1 172.0 306.8Q172.9 307.4 174.3 307.4ZM184.0 293.9L191.9 293.9L191.9 295.8L184.0 295.8L184.0 293.9ZM186.3 305.4L186.3 290.2L188.6 290.2L188.6 304.8Q188.6 305.7 188.9 306.2Q189.2 306.7 189.7 306.9Q190.1 307.1 190.7 307.1L190.7 307.1Q191.1 307.1 191.3 307.0Q191.5 307.0 191.7 306.9L191.7 306.9L192.2 309.0Q191.9 309.1 191.5 309.2Q191.1 309.3 190.4 309.3L190.4 309.3Q189.4 309.3 188.5 308.9Q187.5 308.5 186.9 307.6Q186.3 306.7 186.3 305.4L186.3 305.4Z M209.1 309.1L206.8 309.1L202.1 293.9L204.6 293.9L207.9 305.5L208.0 305.5L211.3 293.9L213.8 293.9L217.0 305.5L217.2 305.5L220.5 293.9L223.0 293.9L218.3 309.1L216.0 309.1L212.7 297.4L212.4 297.4L209.1 309.1ZM228.4 309.1L226.1 309.1L226.1 293.9L228.4 293.9L228.4 309.1ZM227.3 291.3L227.3 291.3Q226.6 291.3 226.1 290.8Q225.6 290.4 225.6 289.7L225.6 289.7Q225.6 289.1 226.1 288.6Q226.6 288.1 227.3 288.1L227.3 288.1Q227.9 288.1 228.4 288.6Q228.9 289.1 228.9 289.7L228.9 289.7Q228.9 290.4 228.4 290.8Q227.9 291.3 227.3 291.3ZM231.4 293.9L239.3 293.9L239.3 295.8L231.4 295.8L231.4 293.9ZM233.7 305.4L233.7 290.2L236.1 290.2L236.1 304.8Q236.1 305.7 236.4 306.2Q236.7 306.7 237.1 306.9Q237.6 307.1 238.1 307.1L238.1 307.1Q238.5 307.1 238.7 307.0Q239.0 307.0 239.1 306.9L239.1 306.9L239.6 309.0Q239.4 309.1 239.0 309.2Q238.5 309.3 237.9 309.3L237.9 309.3Q236.9 309.3 235.9 308.9Q235.0 308.5 234.4 307.6Q233.7 306.7 233.7 305.4L233.7 305.4ZM245.6 299.9L245.6 299.9L245.6 309.1L243.2 309.1L243.2 288.8L245.6 288.8L245.6 296.2L245.7 296.2Q246.3 295.1 247.4 294.4Q248.4 293.7 250.2 293.7L250.2 293.7Q251.8 293.7 253.0 294.3Q254.2 294.9 254.8 296.2Q255.5 297.5 255.5 299.4L255.5 299.4L255.5 309.1L253.1 309.1L253.1 299.6Q253.1 297.8 252.2 296.8Q251.2 295.8 249.6 295.8L249.6 295.8Q248.4 295.8 247.5 296.2Q246.6 296.7 246.1 297.7Q245.6 298.6 245.6 299.9ZM264.2 309.5L264.2 309.5Q262.8 309.5 261.6 308.9Q260.4 308.4 259.7 307.3Q259.0 306.3 259.0 304.8L259.0 304.8Q259.0 303.5 259.6 302.7Q260.1 301.8 260.9 301.4Q261.8 300.9 262.8 300.7Q263.9 300.4 265.0 300.3L265.0 300.3Q266.4 300.1 267.2 300.0Q268.1 299.9 268.5 299.7Q268.9 299.5 268.9 298.9L268.9 298.9L268.9 298.8Q268.9 297.4 268.1 296.5Q267.3 295.7 265.7 295.7L265.7 295.7Q264.0 295.7 263.0 296.5Q262.1 297.2 261.7 298.0L261.7 298.0L259.5 297.2Q260.1 295.8 261.1 295.1Q262.1 294.3 263.3 294.0Q264.4 293.7 265.6 293.7L265.6 293.7Q266.3 293.7 267.3 293.8Q268.3 294.0 269.2 294.5Q270.1 295.1 270.6 296.2Q271.2 297.2 271.2 299.1L271.2 299.1L271.2 309.1L268.9 309.1L268.9 307.1L268.8 307.1Q268.5 307.6 268.0 308.1Q267.4 308.7 266.5 309.1Q265.6 309.5 264.2 309.5ZM264.6 307.4L264.6 307.4Q266.0 307.4 267.0 306.8Q267.9 306.3 268.4 305.4Q268.9 304.6 268.9 303.6L268.9 303.6L268.9 301.4Q268.7 301.6 268.2 301.8Q267.7 301.9 267.1 302.0Q266.4 302.1 265.8 302.2Q265.2 302.3 264.8 302.3L264.8 302.3Q263.9 302.4 263.1 302.7Q262.3 303.0 261.9 303.5Q261.4 304.0 261.4 304.9L261.4 304.9Q261.4 306.1 262.3 306.8Q263.2 307.4 264.6 307.4ZM286.4 297.3L286.4 297.3L284.3 297.9Q284.1 297.3 283.7 296.8Q283.3 296.3 282.6 296.0Q282.0 295.7 280.9 295.7L280.9 295.7Q279.5 295.7 278.6 296.3Q277.7 297.0 277.7 297.9L277.7 297.9Q277.7 298.8 278.3 299.3Q279.0 299.8 280.3 300.2L280.3 300.2L282.6 300.7Q284.6 301.2 285.6 302.2Q286.6 303.3 286.6 304.9L286.6 304.9Q286.6 306.2 285.9 307.2Q285.1 308.3 283.8 308.8Q282.5 309.4 280.7 309.4L280.7 309.4Q278.3 309.4 276.8 308.4Q275.3 307.4 274.9 305.5L274.9 305.5L277.1 304.9Q277.4 306.1 278.3 306.8Q279.2 307.4 280.6 307.4L280.6 307.4Q282.3 307.4 283.2 306.7Q284.2 306.0 284.2 305.0L284.2 305.0Q284.2 304.2 283.7 303.7Q283.1 303.1 281.9 302.8L281.9 302.8L279.4 302.2Q277.3 301.7 276.3 300.7Q275.3 299.6 275.3 298.1L275.3 298.1Q275.3 296.8 276.1 295.8Q276.8 294.8 278.1 294.2Q279.3 293.7 280.9 293.7L280.9 293.7Q283.2 293.7 284.5 294.6Q285.8 295.6 286.4 297.3ZM288.9 293.9L296.8 293.9L296.8 295.8L288.9 295.8L288.9 293.9ZM291.2 305.4L291.2 290.2L293.6 290.2L293.6 304.8Q293.6 305.7 293.9 306.2Q294.1 306.7 294.6 306.9Q295.1 307.1 295.6 307.1L295.6 307.1Q296.0 307.1 296.2 307.0Q296.5 307.0 296.6 306.9L296.6 306.9L297.1 309.0Q296.9 309.1 296.4 309.2Q296.0 309.3 295.3 309.3L295.3 309.3Q294.4 309.3 293.4 308.9Q292.5 308.5 291.8 307.6Q291.2 306.7 291.2 305.4L291.2 305.4ZM302.7 309.1L300.4 309.1L300.4 293.9L302.6 293.9L302.6 296.2L302.8 296.2Q303.2 295.0 304.3 294.3Q305.4 293.6 306.8 293.6L306.8 293.6Q307.0 293.6 307.4 293.6Q307.8 293.6 308.0 293.7L308.0 293.7L308.0 296.0Q307.9 296.0 307.5 295.9Q307.0 295.9 306.6 295.9L306.6 295.9Q305.4 295.9 304.6 296.3Q303.7 296.8 303.2 297.6Q302.7 298.4 302.7 299.5L302.7 299.5L302.7 309.1ZM316.5 309.4L316.5 309.4Q314.4 309.4 312.9 308.5Q311.3 307.5 310.5 305.7Q309.6 303.9 309.6 301.6L309.6 301.6Q309.6 299.2 310.5 297.4Q311.3 295.6 312.9 294.6Q314.4 293.7 316.5 293.7L316.5 293.7Q318.6 293.7 320.1 294.6Q321.7 295.6 322.6 297.4Q323.4 299.2 323.4 301.6L323.4 301.6Q323.4 303.9 322.6 305.7Q321.7 307.5 320.1 308.5Q318.6 309.4 316.5 309.4ZM316.5 307.3L316.5 307.3Q318.1 307.3 319.1 306.5Q320.1 305.7 320.6 304.4Q321.1 303.1 321.1 301.6L321.1 301.6Q321.1 300.0 320.6 298.7Q320.1 297.4 319.1 296.6Q318.1 295.8 316.5 295.8L316.5 295.8Q314.9 295.8 313.9 296.6Q312.9 297.4 312.4 298.7Q311.9 300.0 311.9 301.6L311.9 301.6Q311.9 303.1 312.4 304.4Q312.9 305.7 313.9 306.5Q314.9 307.3 316.5 307.3Z "/><mask id="satori_om-id-8"><rect x="20" y="336" width="760" height="26" fill="#fff"/></mask><path fill="#e2e8f0" d="M24.5 353.9L24.5 353.9L24.5 363.1L22.1 363.1L22.1 342.8L24.5 342.8L24.5 350.2L24.7 350.2Q25.2 349.1 26.3 348.4Q27.4 347.7 29.2 347.7L29.2 347.7Q30.7 347.7 31.9 348.3Q33.1 348.9 33.7 350.2Q34.4 351.5 34.4 353.4L34.4 353.4L34.4 363.1L32.1 363.1L32.1 353.6Q32.1 351.8 31.1 350.8Q30.2 349.8 28.5 349.8L28.5 349.8Q27.4 349.8 26.4 350.2Q25.5 350.7 25.0 351.7Q24.5 352.6 24.5 353.9ZM37.4 347.9L45.3 347.9L45.3 349.8L37.4 349.8L37.4 347.9ZM39.7 359.4L39.7 344.2L42.1 344.2L42.1 358.8Q42.1 359.7 42.4 360.2Q42.7 360.7 43.1 360.9Q43.6 361.1 44.1 361.1L44.1 361.1Q44.5 361.1 44.7 361.0Q45.0 361.0 45.1 360.9L45.1 360.9L45.6 363.0Q45.4 363.1 44.9 363.2Q44.5 363.3 43.9 363.3L43.9 363.3Q42.9 363.3 41.9 362.9Q41.0 362.5 40.3 361.6Q39.7 360.7 39.7 359.4L39.7 359.4ZM47.6 347.9L55.5 347.9L55.5 349.8L47.6 349.8L47.6 347.9ZM49.9 359.4L49.9 344.2L52.3 344.2L52.3 358.8Q52.3 359.7 52.5 360.2Q52.8 360.7 53.3 360.9Q53.8 361.1 54.3 361.1L54.3 361.1Q54.7 361.1 54.9 361.0Q55.2 361.0 55.3 360.9L55.3 360.9L55.8 363.0Q55.6 363.1 55.1 363.2Q54.7 363.3 54.0 363.3L54.0 363.3Q53.1 363.3 52.1 362.9Q51.2 362.5 50.5 361.6Q49.9 360.7 49.9 359.4L49.9 359.4ZM61.4 368.9L59.1 368.9L59.1 347.9L61.3 347.9L61.3 350.3L61.6 350.3Q61.9 349.9 62.3 349.3Q62.8 348.6 63.7 348.1Q64.5 347.7 66.0 347.7L66.0 347.7Q67.9 347.7 69.4 348.6Q70.9 349.6 71.7 351.4Q72.5 353.1 72.5 355.5L72.5 355.5Q72.5 358.0 71.7 359.7Q70.9 361.5 69.4 362.5Q68.0 363.4 66.1 363.4L66.1 363.4Q64.6 363.4 63.7 363.0Q62.8 362.5 62.3 361.8Q61.9 361.2 61.6 360.8L61.6 360.8L61.4 360.8L61.4 368.9ZM61.4 355.5L61.4 355.5Q61.4 357.2 61.9 358.5Q62.4 359.9 63.4 360.6Q64.3 361.3 65.7 361.3L65.7 361.3Q67.2 361.3 68.2 360.6Q69.2 359.8 69.7 358.4Q70.2 357.1 70.2 355.5L70.2 355.5Q70.2 353.9 69.7 352.6Q69.2 351.3 68.2 350.5Q67.2 349.8 65.7 349.8L65.7 349.8Q64.3 349.8 63.3 350.5Q62.4 351.2 61.9 352.5Q61.4 353.8 61.4 355.5ZM86.9 351.3L86.9 351.3L84.8 351.9Q84.6 351.3 84.2 350.8Q83.9 350.3 83.2 350.0Q82.6 349.7 81.5 349.7L81.5 349.7Q80.1 349.7 79.2 350.3Q78.3 351.0 78.3 351.9L78.3 351.9Q78.3 352.8 78.9 353.3Q79.5 353.8 80.9 354.2L80.9 354.2L83.2 354.7Q85.2 355.2 86.2 356.2Q87.2 357.3 87.2 358.9L87.2 358.9Q87.2 360.2 86.5 361.2Q85.7 362.3 84.4 362.8Q83.0 363.4 81.3 363.4L81.3 363.4Q78.9 363.4 77.4 362.4Q75.9 361.4 75.4 359.5L75.4 359.5L77.7 358.9Q78.0 360.1 78.9 360.8Q79.8 361.4 81.2 361.4L81.2 361.4Q82.9 361.4 83.8 360.7Q84.8 360.0 84.8 359.0L84.8 359.0Q84.8 358.2 84.2 357.7Q83.7 357.1 82.5 356.8L82.5 356.8L80.0 356.2Q77.9 355.7 76.9 354.7Q75.9 353.6 75.9 352.1L75.9 352.1Q75.9 350.8 76.7 349.8Q77.4 348.8 78.6 348.2Q79.9 347.7 81.5 347.7L81.5 347.7Q83.8 347.7 85.1 348.6Q86.4 349.6 86.9 351.3ZM92.5 363.3L92.5 363.3Q91.7 363.3 91.2 362.8Q90.7 362.2 90.7 361.5L90.7 361.5Q90.7 360.8 91.2 360.2Q91.7 359.7 92.5 359.7L92.5 359.7Q93.2 359.7 93.7 360.2Q94.3 360.8 94.3 361.5L94.3 361.5Q94.3 362.0 94.0 362.4Q93.8 362.8 93.4 363.0Q93.0 363.3 92.5 363.3ZM92.5 351.9L92.5 351.9Q91.7 351.9 91.2 351.4Q90.7 350.9 90.7 350.2L90.7 350.2Q90.7 349.4 91.2 348.9Q91.7 348.4 92.5 348.4L92.5 348.4Q93.2 348.4 93.7 348.9Q94.3 349.4 94.3 350.2L94.3 350.2Q94.3 350.6 94.0 351.1Q93.8 351.5 93.4 351.7Q93.0 351.9 92.5 351.9ZM103.5 341.8L105.7 341.8L99.1 366.2L97.0 366.2L103.5 341.8ZM113.5 341.8L115.7 341.8L109.1 366.2L106.9 366.2L113.5 341.8ZM122.9 363.5L122.9 363.5Q121.5 363.5 120.3 362.9Q119.1 362.4 118.4 361.3Q117.7 360.3 117.7 358.8L117.7 358.8Q117.7 357.5 118.2 356.7Q118.8 355.8 119.6 355.4Q120.5 354.9 121.5 354.7Q122.6 354.4 123.6 354.3L123.6 354.3Q125.0 354.1 125.9 354.0Q126.8 353.9 127.2 353.7Q127.6 353.5 127.6 352.9L127.6 352.9L127.6 352.8Q127.6 351.4 126.8 350.5Q126.0 349.7 124.4 349.7L124.4 349.7Q122.7 349.7 121.7 350.5Q120.8 351.2 120.4 352.0L120.4 352.0L118.2 351.2Q118.8 349.8 119.8 349.1Q120.8 348.3 121.9 348.0Q123.1 347.7 124.3 347.7L124.3 347.7Q125.0 347.7 126.0 347.8Q126.9 348.0 127.8 348.5Q128.7 349.1 129.3 350.2Q129.9 351.2 129.9 353.1L129.9 353.1L129.9 363.1L127.6 363.1L127.6 361.1L127.5 361.1Q127.2 361.6 126.7 362.1Q126.1 362.7 125.2 363.1Q124.3 363.5 122.9 363.5ZM123.3 361.4L123.3 361.4Q124.7 361.4 125.6 360.8Q126.6 360.3 127.1 359.4Q127.6 358.6 127.6 357.6L127.6 357.6L127.6 355.4Q127.4 355.6 126.9 355.8Q126.4 355.9 125.8 356.0Q125.1 356.1 124.5 356.2Q123.9 356.3 123.5 356.3L123.5 356.3Q122.6 356.4 121.8 356.7Q121.0 357.0 120.6 357.5Q120.1 358.0 120.1 358.9L120.1 358.9Q120.1 360.1 121.0 360.8Q121.9 361.4 123.3 361.4ZM133.0 347.9L140.9 347.9L140.9 349.8L133.0 349.8L133.0 347.9ZM135.3 359.4L135.3 344.2L137.6 344.2L137.6 358.8Q137.6 359.7 137.9 360.2Q138.2 360.7 138.7 360.9Q139.1 361.1 139.6 361.1L139.6 361.1Q140.0 361.1 140.3 361.0Q140.5 361.0 140.7 360.9L140.7 360.9L141.1 363.0Q140.9 363.1 140.5 363.2Q140.1 363.3 139.4 363.3L139.4 363.3Q138.4 363.3 137.5 362.9Q136.5 362.5 135.9 361.6Q135.3 360.7 135.3 359.4L135.3 359.4ZM147.1 353.9L147.1 353.9L147.1 363.1L144.7 363.1L144.7 342.8L147.1 342.8L147.1 350.2L147.3 350.2Q147.8 349.1 148.9 348.4Q150.0 347.7 151.8 347.7L151.8 347.7Q153.3 347.7 154.5 348.3Q155.7 348.9 156.3 350.2Q157.0 351.5 157.0 353.4L157.0 353.4L157.0 363.1L154.6 363.1L154.6 353.6Q154.6 351.8 153.7 350.8Q152.8 349.8 151.1 349.8L151.1 349.8Q149.9 349.8 149.0 350.2Q148.1 350.7 147.6 351.7Q147.1 352.6 147.1 353.9ZM165.8 363.5L165.8 363.5Q164.3 363.5 163.1 362.9Q161.9 362.4 161.3 361.3Q160.6 360.3 160.6 358.8L160.6 358.8Q160.6 357.5 161.1 356.7Q161.6 355.8 162.5 355.4Q163.3 354.9 164.4 354.7Q165.4 354.4 166.5 354.3L166.5 354.3Q167.9 354.1 168.7 354.0Q169.6 353.9 170.0 353.7Q170.4 353.5 170.4 352.9L170.4 352.9L170.4 352.8Q170.4 351.4 169.6 350.5Q168.8 349.7 167.2 349.7L167.2 349.7Q165.5 349.7 164.6 350.5Q163.6 351.2 163.2 352.0L163.2 352.0L161.0 351.2Q161.6 349.8 162.6 349.1Q163.6 348.3 164.8 348.0Q166.0 347.7 167.1 347.7L167.1 347.7Q167.9 347.7 168.8 347.8Q169.8 348.0 170.7 348.5Q171.6 349.1 172.2 350.2Q172.8 351.2 172.8 353.1L172.8 353.1L172.8 363.1L170.4 363.1L170.4 361.1L170.3 361.1Q170.1 361.6 169.5 362.1Q168.9 362.7 168.0 363.1Q167.1 363.5 165.8 363.5ZM166.1 361.4L166.1 361.4Q167.5 361.4 168.5 360.8Q169.4 360.3 169.9 359.4Q170.4 358.6 170.4 357.6L170.4 357.6L170.4 355.4Q170.3 355.6 169.8 355.8Q169.3 355.9 168.6 356.0Q168.0 356.1 167.4 356.2Q166.7 356.3 166.4 356.3L166.4 356.3Q165.4 356.4 164.7 356.7Q163.9 357.0 163.4 357.5Q162.9 358.0 162.9 358.9L162.9 358.9Q162.9 360.1 163.8 360.8Q164.7 361.4 166.1 361.4ZM179.4 363.1L177.1 363.1L177.1 347.9L179.3 347.9L179.3 350.2L179.5 350.2Q179.9 349.0 181 348.3Q182.1 347.6 183.5 347.6L183.5 347.6Q183.7 347.6 184.1 347.6Q184.5 347.6 184.7 347.7L184.7 347.7L184.7 350.0Q184.6 350.0 184.2 349.9Q183.7 349.9 183.3 349.9L183.3 349.9Q182.2 349.9 181.3 350.3Q180.4 350.8 179.9 351.6Q179.4 352.4 179.4 353.5L179.4 353.5L179.4 363.1ZM197.9 347.9L200.4 347.9L194.8 363.1L192.4 363.1L186.8 347.9L189.3 347.9L193.5 360.0L193.7 360.0L197.9 347.9ZM207.6 363.5L207.6 363.5Q206.1 363.5 204.9 362.9Q203.7 362.4 203.1 361.3Q202.4 360.3 202.4 358.8L202.4 358.8Q202.4 357.5 202.9 356.7Q203.4 355.8 204.3 355.4Q205.1 354.9 206.2 354.7Q207.2 354.4 208.3 354.3L208.3 354.3Q209.7 354.1 210.5 354.0Q211.4 353.9 211.8 353.7Q212.2 353.5 212.2 352.9L212.2 352.9L212.2 352.8Q212.2 351.4 211.4 350.5Q210.6 349.7 209.0 349.7L209.0 349.7Q207.3 349.7 206.4 350.5Q205.4 351.2 205.0 352.0L205.0 352.0L202.8 351.2Q203.4 349.8 204.4 349.1Q205.4 348.3 206.6 348.0Q207.8 347.7 208.9 347.7L208.9 347.7Q209.7 347.7 210.6 347.8Q211.6 348.0 212.5 348.5Q213.4 349.1 214.0 350.2Q214.6 351.2 214.6 353.1L214.6 353.1L214.6 363.1L212.2 363.1L212.2 361.1L212.1 361.1Q211.9 361.6 211.3 362.1Q210.7 362.7 209.8 363.1Q208.9 363.5 207.6 363.5ZM207.9 361.4L207.9 361.4Q209.3 361.4 210.3 360.8Q211.2 360.3 211.7 359.4Q212.2 358.6 212.2 357.6L212.2 357.6L212.2 355.4Q212.1 355.6 211.6 355.8Q211.1 355.9 210.4 356.0Q209.8 356.1 209.2 356.2Q208.5 356.3 208.2 356.3L208.2 356.3Q207.2 356.4 206.5 356.7Q205.7 357.0 205.2 357.5Q204.7 358.0 204.7 358.9L204.7 358.9Q204.7 360.1 205.6 360.8Q206.5 361.4 207.9 361.4ZM217.6 347.9L225.5 347.9L225.5 349.8L217.6 349.8L217.6 347.9ZM219.9 359.4L219.9 344.2L222.2 344.2L222.2 358.8Q222.2 359.7 222.5 360.2Q222.8 360.7 223.3 360.9Q223.8 361.1 224.3 361.1L224.3 361.1Q224.7 361.1 224.9 361.0Q225.2 361.0 225.3 360.9L225.3 360.9L225.8 363.0Q225.5 363.1 225.1 363.2Q224.7 363.3 224.0 363.3L224.0 363.3Q223.0 363.3 222.1 362.9Q221.1 362.5 220.5 361.6Q219.9 360.7 219.9 359.4L219.9 359.4ZM230.6 368.9L230.6 368.9Q230.0 368.9 229.5 368.8Q229.0 368.7 228.8 368.6L228.8 368.6L229.4 366.5Q230.3 366.7 231.0 366.7Q231.6 366.6 232.1 366.1Q232.6 365.6 233.1 364.4L233.1 364.4L233.5 363.2L227.9 347.9L230.4 347.9L234.6 360.0L234.8 360.0L239.0 347.9L241.5 347.9L235.1 365.4Q234.6 366.5 234.0 367.3Q233.3 368.1 232.5 368.5Q231.6 368.9 230.6 368.9ZM247.0 368.9L244.6 368.9L244.6 347.9L246.9 347.9L246.9 350.3L247.2 350.3Q247.4 349.9 247.9 349.3Q248.4 348.6 249.2 348.1Q250.1 347.7 251.6 347.7L251.6 347.7Q253.5 347.7 255.0 348.6Q256.5 349.6 257.3 351.4Q258.1 353.1 258.1 355.5L258.1 355.5Q258.1 358.0 257.3 359.7Q256.5 361.5 255.0 362.5Q253.5 363.4 251.6 363.4L251.6 363.4Q250.2 363.4 249.3 363.0Q248.4 362.5 247.9 361.8Q247.4 361.2 247.2 360.8L247.2 360.8L247.0 360.8L247.0 368.9ZM246.9 355.5L246.9 355.5Q246.9 357.2 247.5 358.5Q248.0 359.9 248.9 360.6Q249.9 361.3 251.3 361.3L251.3 361.3Q252.8 361.3 253.8 360.6Q254.8 359.8 255.3 358.4Q255.8 357.1 255.8 355.5L255.8 355.5Q255.8 353.9 255.3 352.6Q254.8 351.3 253.8 350.5Q252.8 349.8 251.3 349.8L251.3 349.8Q249.9 349.8 248.9 350.5Q247.9 351.2 247.4 352.5Q246.9 353.8 246.9 355.5ZM268.1 363.4L268.1 363.4Q265.9 363.4 264.3 362.5Q262.7 361.5 261.8 359.7Q261.0 358.0 261.0 355.6L261.0 355.6Q261.0 353.3 261.8 351.5Q262.7 349.7 264.2 348.7Q265.8 347.7 267.9 347.7L267.9 347.7Q269.1 347.7 270.2 348.1Q271.4 348.4 272.3 349.3Q273.3 350.2 273.9 351.7Q274.4 353.2 274.4 355.3L274.4 355.3L274.4 356.3L262.7 356.3L262.7 354.3L272.0 354.3Q272.0 353.0 271.5 351.9Q271.0 350.9 270.1 350.3Q269.1 349.8 267.9 349.8L267.9 349.8Q266.5 349.8 265.4 350.5Q264.4 351.1 263.9 352.2Q263.3 353.4 263.3 354.6L263.3 354.6L263.3 356.0Q263.3 357.7 263.9 358.9Q264.5 360.1 265.6 360.7Q266.7 361.3 268.1 361.3L268.1 361.3Q269.0 361.3 269.8 361.1Q270.5 360.8 271.1 360.3Q271.6 359.7 271.9 358.9L271.9 358.9L274.2 359.6Q273.8 360.7 273.0 361.6Q272.1 362.5 270.9 363.0Q269.7 363.4 268.1 363.4ZM288.8 351.3L288.8 351.3L286.7 351.9Q286.5 351.3 286.1 350.8Q285.8 350.3 285.1 350.0Q284.4 349.7 283.4 349.7L283.4 349.7Q282.0 349.7 281.1 350.3Q280.2 351.0 280.2 351.9L280.2 351.9Q280.2 352.8 280.8 353.3Q281.4 353.8 282.8 354.2L282.8 354.2L285.0 354.7Q287.1 355.2 288.1 356.2Q289.1 357.3 289.1 358.9L289.1 358.9Q289.1 360.2 288.4 361.2Q287.6 362.3 286.3 362.8Q284.9 363.4 283.1 363.4L283.1 363.4Q280.8 363.4 279.3 362.4Q277.7 361.4 277.3 359.5L277.3 359.5L279.6 358.9Q279.9 360.1 280.8 360.8Q281.7 361.4 283.1 361.4L283.1 361.4Q284.7 361.4 285.7 360.7Q286.7 360.0 286.7 359.0L286.7 359.0Q286.7 358.2 286.1 357.7Q285.6 357.1 284.4 356.8L284.4 356.8L281.9 356.2Q279.8 355.7 278.8 354.7Q277.8 353.6 277.8 352.1L277.8 352.1Q277.8 350.8 278.5 349.8Q279.3 348.8 280.5 348.2Q281.8 347.7 283.4 347.7L283.4 347.7Q285.7 347.7 287.0 348.6Q288.3 349.6 288.8 351.3ZM294.4 363.3L294.4 363.3Q293.6 363.3 293.1 362.8Q292.6 362.2 292.6 361.5L292.6 361.5Q292.6 360.8 293.1 360.2Q293.6 359.7 294.4 359.7L294.4 359.7Q295.1 359.7 295.6 360.2Q296.1 360.8 296.1 361.5L296.1 361.5Q296.1 362.0 295.9 362.4Q295.7 362.8 295.3 363.0Q294.8 363.3 294.4 363.3ZM310.3 347.9L312.8 347.9L307.2 363.1L304.8 363.1L299.2 347.9L301.7 347.9L305.9 360.0L306.1 360.0L310.3 347.9ZM321.8 363.4L321.8 363.4Q319.6 363.4 318.0 362.5Q316.4 361.5 315.5 359.7Q314.7 358.0 314.7 355.6L314.7 355.6Q314.7 353.3 315.5 351.5Q316.4 349.7 317.9 348.7Q319.5 347.7 321.6 347.7L321.6 347.7Q322.7 347.7 323.9 348.1Q325.1 348.4 326.0 349.3Q327.0 350.2 327.6 351.7Q328.1 353.2 328.1 355.3L328.1 355.3L328.1 356.3L316.3 356.3L316.3 354.3L325.7 354.3Q325.7 353.0 325.2 351.9Q324.7 350.9 323.8 350.3Q322.8 349.8 321.6 349.8L321.6 349.8Q320.2 349.8 319.1 350.5Q318.1 351.1 317.6 352.2Q317.0 353.4 317.0 354.6L317.0 354.6L317.0 356.0Q317.0 357.7 317.6 358.9Q318.2 360.1 319.3 360.7Q320.4 361.3 321.8 361.3L321.8 361.3Q322.7 361.3 323.5 361.1Q324.2 360.8 324.8 360.3Q325.3 359.7 325.6 358.9L325.6 358.9L327.9 359.6Q327.5 360.7 326.7 361.6Q325.8 362.5 324.6 363.0Q323.3 363.4 321.8 363.4ZM334.0 363.1L331.7 363.1L331.7 347.9L334.0 347.9L334.0 350.2L334.1 350.2Q334.5 349.0 335.6 348.3Q336.7 347.6 338.1 347.6L338.1 347.6Q338.4 347.6 338.7 347.6Q339.1 347.6 339.3 347.7L339.3 347.7L339.3 350.0Q339.2 350.0 338.8 349.9Q338.4 349.9 337.9 349.9L337.9 349.9Q336.8 349.9 335.9 350.3Q335.0 350.8 334.5 351.6Q334.0 352.4 334.0 353.5L334.0 353.5L334.0 363.1ZM347.8 363.4L347.8 363.4Q345.7 363.4 344.1 362.4Q342.6 361.4 341.8 359.6Q340.9 357.9 340.9 355.6L340.9 355.6Q340.9 353.2 341.8 351.5Q342.6 349.7 344.2 348.7Q345.7 347.7 347.8 347.7L347.8 347.7Q349.4 347.7 350.7 348.3Q352.0 348.8 352.8 349.9Q353.7 351.0 353.9 352.4L353.9 352.4L351.5 352.4Q351.2 351.4 350.3 350.6Q349.4 349.8 347.8 349.8L347.8 349.8Q346.5 349.8 345.4 350.5Q344.4 351.2 343.8 352.5Q343.3 353.8 343.3 355.5L343.3 355.5Q343.3 357.3 343.8 358.6Q344.4 359.9 345.4 360.6Q346.5 361.3 347.8 361.3L347.8 361.3Q348.8 361.3 349.5 361.0Q350.3 360.7 350.8 360.1Q351.3 359.5 351.5 358.7L351.5 358.7L353.9 358.7Q353.7 360.0 352.9 361.1Q352.1 362.2 350.8 362.8Q349.5 363.4 347.8 363.4ZM363.7 363.4L363.7 363.4Q361.5 363.4 359.9 362.5Q358.3 361.5 357.4 359.7Q356.6 358.0 356.6 355.6L356.6 355.6Q356.6 353.3 357.4 351.5Q358.3 349.7 359.8 348.7Q361.4 347.7 363.4 347.7L363.4 347.7Q364.6 347.7 365.8 348.1Q367.0 348.4 367.9 349.3Q368.9 350.2 369.4 351.7Q370.0 353.2 370.0 355.3L370.0 355.3L370.0 356.3L358.2 356.3L358.2 354.3L367.6 354.3Q367.6 353.0 367.1 351.9Q366.6 350.9 365.6 350.3Q364.7 349.8 363.4 349.8L363.4 349.8Q362.0 349.8 361.0 350.5Q360.0 351.1 359.5 352.2Q358.9 353.4 358.9 354.6L358.9 354.6L358.9 356.0Q358.9 357.7 359.5 358.9Q360.1 360.1 361.2 360.7Q362.3 361.3 363.7 361.3L363.7 361.3Q364.6 361.3 365.4 361.1Q366.1 360.8 366.6 360.3Q367.2 359.7 367.5 358.9L367.5 358.9L369.8 359.6Q369.4 360.7 368.6 361.6Q367.7 362.5 366.5 363.0Q365.2 363.4 363.7 363.4ZM373.6 342.8L375.9 342.8L375.9 363.1L373.6 363.1L373.6 342.8ZM381.9 363.3L381.9 363.3Q381.2 363.3 380.7 362.8Q380.1 362.2 380.1 361.5L380.1 361.5Q380.1 360.8 380.7 360.2Q381.2 359.7 381.9 359.7L381.9 359.7Q382.7 359.7 383.2 360.2Q383.7 360.8 383.7 361.5L383.7 361.5Q383.7 362.0 383.5 362.4Q383.2 362.8 382.8 363.0Q382.4 363.3 381.9 363.3ZM392.4 363.5L392.4 363.5Q391.0 363.5 389.8 362.9Q388.6 362.4 387.9 361.3Q387.2 360.3 387.2 358.8L387.2 358.8Q387.2 357.5 387.7 356.7Q388.3 355.8 389.1 355.4Q390.0 354.9 391.0 354.7Q392.1 354.4 393.1 354.3L393.1 354.3Q394.5 354.1 395.4 354.0Q396.3 353.9 396.7 353.7Q397.1 353.5 397.1 352.9L397.1 352.9L397.1 352.8Q397.1 351.4 396.3 350.5Q395.5 349.7 393.9 349.7L393.9 349.7Q392.2 349.7 391.2 350.5Q390.3 351.2 389.9 352.0L389.9 352.0L387.7 351.2Q388.3 349.8 389.3 349.1Q390.3 348.3 391.4 348.0Q392.6 347.7 393.8 347.7L393.8 347.7Q394.5 347.7 395.5 347.8Q396.4 348.0 397.3 348.5Q398.2 349.1 398.8 350.2Q399.4 351.2 399.4 353.1L399.4 353.1L399.4 363.1L397.1 363.1L397.1 361.1L397.0 361.1Q396.7 361.6 396.2 362.1Q395.6 362.7 394.7 363.1Q393.8 363.5 392.4 363.5ZM392.8 361.4L392.8 361.4Q394.2 361.4 395.1 360.8Q396.1 360.3 396.6 359.4Q397.1 358.6 397.1 357.6L397.1 357.6L397.1 355.4Q396.9 355.6 396.4 355.8Q395.9 355.9 395.3 356.0Q394.6 356.1 394.0 356.2Q393.4 356.3 393.0 356.3L393.0 356.3Q392.1 356.4 391.3 356.7Q390.5 357.0 390.1 357.5Q389.6 358.0 389.6 358.9L389.6 358.9Q389.6 360.1 390.5 360.8Q391.4 361.4 392.8 361.4ZM406.1 368.9L403.7 368.9L403.7 347.9L406.0 347.9L406.0 350.3L406.3 350.3Q406.5 349.9 407.0 349.3Q407.5 348.6 408.3 348.1Q409.2 347.7 410.7 347.7L410.7 347.7Q412.6 347.7 414.1 348.6Q415.6 349.6 416.4 351.4Q417.2 353.1 417.2 355.5L417.2 355.5Q417.2 358.0 416.4 359.7Q415.6 361.5 414.1 362.5Q412.6 363.4 410.7 363.4L410.7 363.4Q409.3 363.4 408.4 363.0Q407.5 362.5 407.0 361.8Q406.5 361.2 406.3 360.8L406.3 360.8L406.1 360.8L406.1 368.9ZM406.0 355.5L406.0 355.5Q406.0 357.2 406.5 358.5Q407.0 359.9 408.0 360.6Q409.0 361.3 410.4 361.3L410.4 361.3Q411.9 361.3 412.9 360.6Q413.9 359.8 414.4 358.4Q414.9 357.1 414.9 355.5L414.9 355.5Q414.9 353.9 414.4 352.6Q413.9 351.3 412.9 350.5Q411.9 349.8 410.4 349.8L410.4 349.8Q409.0 349.8 408.0 350.5Q407.0 351.2 406.5 352.5Q406.0 353.8 406.0 355.5ZM423.1 368.9L420.8 368.9L420.8 347.9L423.1 347.9L423.1 350.3L423.3 350.3Q423.6 349.9 424.1 349.3Q424.5 348.6 425.4 348.1Q426.3 347.7 427.7 347.7L427.7 347.7Q429.7 347.7 431.2 348.6Q432.6 349.6 433.4 351.4Q434.3 353.1 434.3 355.5L434.3 355.5Q434.3 358.0 433.4 359.7Q432.6 361.5 431.2 362.5Q429.7 363.4 427.8 363.4L427.8 363.4Q426.3 363.4 425.4 363.0Q424.5 362.5 424.1 361.8Q423.6 361.2 423.3 360.8L423.3 360.8L423.1 360.8L423.1 368.9ZM423.1 355.5L423.1 355.5Q423.1 357.2 423.6 358.5Q424.1 359.9 425.1 360.6Q426.1 361.3 427.5 361.3L427.5 361.3Q428.9 361.3 429.9 360.6Q430.9 359.8 431.4 358.4Q431.9 357.1 431.9 355.5L431.9 355.5Q431.9 353.9 431.4 352.6Q430.9 351.3 430.0 350.5Q429.0 349.8 427.5 349.8L427.5 349.8Q426.0 349.8 425.1 350.5Q424.1 351.2 423.6 352.5Q423.1 353.8 423.1 355.5ZM442.9 341.8L445.1 341.8L438.5 366.2L436.3 366.2L442.9 341.8Z "/><line x1="20" y1="365.8375" x2="446.4034090909091" y2="365.8375" stroke="#e2e8f0" stroke-width="2.8000000000000003" stroke-dasharray="0 5.6000000000000005" stroke-linecap="round"/></svg>